<?xml version="1.0" encoding="UTF-8" standalone="no"?>
<svg
   xmlns:dc="http://purl.org/dc/elements/1.1/"
   xmlns:cc="http://creativecommons.org/ns#"
   xmlns:rdf="http://www.w3.org/1999/02/22-rdf-syntax-ns#"
   xmlns:svg="http://www.w3.org/2000/svg"
   xmlns="http://www.w3.org/2000/svg"
   xmlns:sodipodi="http://sodipodi.sourceforge.net/DTD/sodipodi-0.dtd"
   xmlns:inkscape="http://www.inkscape.org/namespaces/inkscape"
   version="1.1"
   id="svg2"
   xml:space="preserve"
   width="207.2"
   height="64.106667"
   viewBox="0 0 207.2 64.106667"
   sodipodi:docname="UoG_keyline.eps"><metadata
     id="metadata8"><rdf:RDF><cc:Work
         rdf:about=""><dc:format>image/svg+xml</dc:format><dc:type
           rdf:resource="http://purl.org/dc/dcmitype/StillImage" /></cc:Work></rdf:RDF></metadata><defs
     id="defs6" /><sodipodi:namedview
     pagecolor="#ffffff"
     bordercolor="#666666"
     borderopacity="1"
     objecttolerance="10"
     gridtolerance="10"
     guidetolerance="10"
     inkscape:pageopacity="0"
     inkscape:pageshadow="2"
     inkscape:window-width="640"
     inkscape:window-height="480"
     id="namedview4" /><g
     id="g10"
     inkscape:groupmode="layer"
     inkscape:label="ink_ext_XXXXXX"
     transform="matrix(1.3333333,0,0,-1.3333333,0,64.106667)"><g
       id="g12"
       transform="scale(0.1)"><path
         d="M 4.19922,223.98 C 4.14844,147.086 99.1602,62.2852 156.012,59.3359 h -0.157 c 56.848,2.9493 151.864,87.7691 151.809,164.6561 0.367,104.414 0,248.211 0,248.211 L 4.19922,472.172 V 223.98"
         style="fill:#0d3258;fill-opacity:1;fill-rule:nonzero;stroke:none"
         id="path14" /><path
         d="M 8.14453,468.227 V 223.98 C 8.09375,148.289 102.809,66.3281 155.93,63.3008 c 53.133,3.0273 147.843,85.0002 147.793,160.6872 0.324,93.641 0.062,220.43 0.007,244.27 z M 155.93,55.3828 155.723,55.3906 C 98.5898,58.4453 0.199219,142.895 0.257813,223.984 v 252.133 l 311.344187,0.031 0.007,-3.937 c 0.008,-1.434 0.368,-144.992 0,-248.231 C 311.672,142.898 213.285,58.4453 156.145,55.3906 l -0.215,-0.0078"
         style="fill:#ffffff;fill-opacity:1;fill-rule:nonzero;stroke:none"
         id="path16" /><path
         d="M 153.691,367.574 V 100.242 h 9.653 v 267.332 h -9.653"
         style="fill:#a3e1f9;fill-opacity:1;fill-rule:nonzero;stroke:none"
         id="path18" /><path
         d="m 222.227,369.211 c 8.625,0.035 22.554,-0.039 31.574,-0.039 2.816,0 7.41,0.832 4.832,-5.359 -2.285,-5.485 -5.57,-13.114 -6.992,-16.403 -4.762,0 -24.086,-0.012 -24.137,0.078 -1.527,3.582 -3.738,8.684 -6.535,15.145 -1.496,3.457 -2.231,6.578 1.258,6.578 z m -4.372,-93.699 h 47.649 c 14.062,0 15.34,-1.926 16.336,-4.949 -0.586,4.691 -3.625,28.679 -5.742,46.046 -0.547,4.536 -2.137,16.996 -8.422,24.43 -1.988,2.395 -2.946,3.59 -7.211,5.414 0.332,0.945 4.215,10.61 7.101,18.41 1.477,3.989 -0.121,7.965 -3.171,9.825 -2.657,1.585 -6.059,1.664 -8.489,1.664 -16.332,0 -28.933,-0.028 -33.968,-0.028 -8.731,0 -12.782,-5.547 -10.114,-12.254 2.031,-5.082 5.387,-13.738 6.93,-17.703 -10.734,-3.578 -14.281,-18.222 -15.84,-30.918 -2.594,-21.402 -6.105,-49.937 -6.351,-51.644 -0.379,-2.719 -0.833,-4.957 3.632,-5.172 8.461,-0.547 18.352,-0.606 34.985,-0.176 1.613,-0.902 3.699,-1.469 6.418,-1.383 2.699,0.039 4.672,0.762 6.09,1.774 6.789,0.23 14.507,0.547 23.335,0.902 -7.746,0.184 -15.027,0.406 -21.742,0.594 2.414,3.008 2.168,7.133 1.953,7.922 -1.015,-11.153 -15.507,-10.075 -11.914,1.754 -1.562,0 -5.59,0 -8.152,-2.09 -0.695,-1.739 -0.453,-4.629 1.195,-7.016 -9.41,0.41 -17.148,0.75 -22.758,1.066 -2.871,0.145 -4.269,2.223 -2.796,4.149 6.058,7.914 6.421,9.383 11.046,9.383"
         style="fill:#fccc22;fill-opacity:1;fill-rule:nonzero;stroke:none"
         id="path20" /><path
         d="m 156.254,101.387 c 0,-3.1253 -2.09,-5.6956 -4.684,-5.6956 -2.59,0 -4.695,2.5703 -4.695,5.6956 v 26.535 c 0,3.101 2.105,5.676 4.695,5.676 2.594,0 4.684,-2.575 4.684,-5.676 v -26.535"
         style="fill:#ffffff;fill-opacity:1;fill-rule:nonzero;stroke:none"
         id="path22" /><path
         d="m 90.8398,416.402 c 1.5079,0.621 3.6641,0.457 5.6329,0.457 -2.1875,1.829 -4.168,2.539 -5.3829,2.844 -2.8007,10.625 -18.1484,7.75 -19.6679,-1.66 -0.5469,-3.398 -12.6172,-4.902 -26.4375,-23.383 -6.3711,-8.488 -15.1758,-15.855 -17.8321,-17.555 -2.6875,-1.671 3.8399,-1.175 6.8555,2.028 2.8438,-2.863 8.3985,5.703 16.7656,7.14 2.2188,0.368 30.0235,5.422 22.7032,21.329 9.789,-12.602 -6.5391,-21.661 -16.8243,-22.657 0.9024,-0.48 6.254,-0.906 6.8594,-1.144 1.5352,-0.539 -0.457,-2.399 0.793,-3.11 3,-1.66 8.9531,-7.269 8.9531,-7.269 0,0 3.3672,1.148 1.8555,2.687 -4.5938,3.024 -5.836,3.942 -7.0078,5.825 -0.0821,0.117 -1.5625,2.902 1.4609,3.703 4.3555,0.351 18.6055,5.418 16.1875,23.289 -0.3867,2.832 1.5899,5.89 5.0859,7.476"
         style="fill:#df9824;fill-opacity:1;fill-rule:nonzero;stroke:none"
         id="path24" /><path
         d="m 88.7656,419.367 c 0,-0.933 -0.6992,-1.679 -1.5547,-1.679 -0.8242,0 -1.5156,0.746 -1.5156,1.679 0,0.91 0.6914,1.688 1.5156,1.688 0.8555,0 1.5547,-0.778 1.5547,-1.688"
         style="fill:#0d3258;fill-opacity:1;fill-rule:nonzero;stroke:none"
         id="path26" /><path
         d="M 160.621,134.59 V 97.0313 h 5.141 V 134.59 h -5.141"
         style="fill:#ffffff;fill-opacity:1;fill-rule:nonzero;stroke:none"
         id="path28" /><path
         d="m 170.32,91.1914 c 1.543,1.5899 2.461,3.7578 2.461,6.1524 0,4.9142 -3.988,8.9452 -8.929,8.9452 h -15.196 c -4.941,0 -8.961,-4.031 -8.961,-8.9452 0,-2.3165 0.903,-4.375 2.321,-5.9766 -1.84,-1.6406 -5.121,-4.8359 -6.024,-5.918 10.192,-4.4922 29.574,-4.1211 40.5,0.0703 -1.027,0.8672 -4.519,4.1094 -6.172,5.6719"
         style="fill:#fccc22;fill-opacity:1;fill-rule:nonzero;stroke:none"
         id="path30" /><path
         d="m 156.02,399.449 c 0,-0.23 -0.024,-0.172 -0.024,0.063 -6.601,5.902 -27.781,8.418 -41.41,4.937 0.894,-1.656 1.992,-6.953 2.57,-9.062 20.11,6.687 38.84,-3.082 38.84,-3.082 0,0.043 0,0.121 0.012,0.179 0,-0.058 0,-0.16 0.012,-0.207 0,0 18.73,9.758 38.863,3.071 0.555,2.109 1.68,7.382 2.566,9.027 -13.636,3.508 -34.828,0.996 -41.429,-4.926"
         style="fill:#a3e1f9;fill-opacity:1;fill-rule:nonzero;stroke:none"
         id="path32" /><path
         d="M 162.113,367.59 V 160.453 h 3 V 367.59 h -3"
         style="fill:#ffffff;fill-opacity:1;fill-rule:nonzero;stroke:none"
         id="path34" /><path
         d="M 147.02,367.574 V 175.375 h 9.601 v 192.199 h -9.601"
         style="fill:#ffffff;fill-opacity:1;fill-rule:nonzero;stroke:none"
         id="path36" /><path
         d="m 165.805,293.633 c 0.621,2.25 0.91,7.805 0,9.555 -4.512,0 -11.504,-0.04 -15.594,0.074 9.344,-3.426 15.594,-9.629 15.594,-9.629"
         style="fill:#0d3258;fill-opacity:1;fill-rule:nonzero;stroke:none"
         id="path38" /><path
         d="m 132.117,122.52 c 5.367,-0.809 34.207,-2.184 34.207,-2.184 l 4.699,-12.223 c 0,0 -25.164,0.664 -38.906,14.407"
         style="fill:#0d3258;fill-opacity:1;fill-rule:nonzero;stroke:none"
         id="path40" /><path
         d="m 250.102,210.188 c -9.016,5.82 -19.961,1.339 -31.789,11.273 0.039,-30.84 22.492,-37.031 9.855,-45.262 -11.27,-7.367 -22.176,-9.191 -33.512,-8.25 0.965,1.555 2.664,4.348 4.016,5.742 -13.887,1.782 -25.992,0.782 -31.078,0.188 -17.285,5.074 -36.465,11.48 -59.571,11.844 4.188,-3.418 8.325,-9.352 8.325,-19.575 -3.504,13.797 -17.8558,21.016 -24.9066,23.762 -2.1094,0.797 -4.082,1.168 -6.1328,1.512 -1.0352,-1.418 -3.2695,-3.785 -7.0078,-5.188 -2.1328,1.133 -3.8711,-0.886 -3.5781,-1.55 0.1211,-0.329 0.0781,-0.657 -0.1875,-0.985 -2.0664,-2.676 -8.8204,-1.394 -13.8672,0.344 -5.8086,2.012 -5.5742,-1.992 -4.4492,-3.992 1.8242,-3.231 3.5859,-5.317 4.4492,-7.106 7.7148,-15.75 13.4336,-26.097 30.5273,-35.875 16.2497,-11.996 36.6797,-18.172 57.4607,-18.879 7.574,-2.711 24.992,-7.527 46.832,-4.031 -4.242,2.863 -8.492,5.676 -9.89,8.512 27.746,8.016 51.742,26.258 61.547,53.769 0.117,0.297 0.218,0.594 0.328,0.903 1.761,6.031 -4.078,14.039 -12.371,6.133 7.183,17.261 19.07,9.796 16.546,-0.414 9.489,12.773 22.168,26.488 39.098,31.683 -15.469,7.149 -30.664,0.957 -40.644,-4.558"
         style="fill:#a3e1f9;fill-opacity:1;fill-rule:nonzero;stroke:none"
         id="path42" /><path
         d="m 166.105,237.094 c 0.625,2.265 0.891,7.84 0,9.554 -4.523,0 -11.511,-0.062 -15.578,0.067 9.328,-3.41 15.578,-9.621 15.578,-9.621"
         style="fill:#0d3258;fill-opacity:1;fill-rule:nonzero;stroke:none"
         id="path44" /><path
         d="m 172.652,255.266 c 0,-4.957 -4.074,-8.957 -9.054,-8.957 h -15.414 c -5,0 -9.067,4 -9.067,8.957 0,4.945 4.067,8.918 9.067,8.918 h 15.414 c 4.98,0 9.054,-3.973 9.054,-8.918"
         style="fill:#fccc22;fill-opacity:1;fill-rule:nonzero;stroke:none"
         id="path46" /><path
         d="m 163.336,249.348 c -9.039,-0.102 -16.809,0 -16.809,0 0,0 12.735,0.757 20.793,9.382 2.129,-1.417 2.524,-9.359 -3.984,-9.382"
         style="fill:#df9824;fill-opacity:1;fill-rule:nonzero;stroke:none"
         id="path48" /><path
         d="m 166.246,179.77 c 0.625,2.242 0.887,7.835 0,9.55 -4.512,0 -11.488,-0.05 -15.57,0.067 9.324,-3.41 15.57,-9.617 15.57,-9.617"
         style="fill:#0d3258;fill-opacity:1;fill-rule:nonzero;stroke:none"
         id="path50" /><path
         d="m 172.766,198.199 c 0,-4.953 -4.051,-8.957 -9.043,-8.957 H 148.32 c -5.019,0 -9.05,4.004 -9.05,8.957 0,4.946 4.031,8.903 9.05,8.903 h 15.403 c 4.992,0 9.043,-3.957 9.043,-8.903"
         style="fill:#fccc22;fill-opacity:1;fill-rule:nonzero;stroke:none"
         id="path52" /><path
         d="m 163.445,192.289 c -9.043,-0.086 -16.781,0.016 -16.781,0.016 0,0 12.699,0.703 20.774,9.375 2.128,-1.438 2.542,-9.352 -3.993,-9.391"
         style="fill:#df9824;fill-opacity:1;fill-rule:nonzero;stroke:none"
         id="path54" /><path
         d="m 142.379,353.059 v -26.743 h 27.226 v 26.743 h -27.226"
         style="fill:#fccc22;fill-opacity:1;fill-rule:nonzero;stroke:none"
         id="path56" /><path
         d="m 169.605,326.352 c -4.621,-1.118 -4.324,-4.981 -4.492,-6.414 0,0 -10.98,-0.075 -18.195,0 0.062,0.414 0.227,5.714 -4.539,6.414 0,0 25.48,-0.02 27.226,0"
         style="fill:#df9824;fill-opacity:1;fill-rule:nonzero;stroke:none"
         id="path58" /><path
         d="m 158.277,353.059 v -27.067 h 7.375 v 27.067 h -7.375"
         style="fill:#df9824;fill-opacity:1;fill-rule:nonzero;stroke:none"
         id="path60" /><path
         d="m 69.7188,186.82 c -1.3711,0.516 -2.1055,1.672 -2.4766,2.543 -0.875,1.953 -0.8594,4.567 0.0976,7.028 0.9493,2.433 2.6641,4.398 4.668,5.289 0.8672,0.367 2.1914,0.707 3.5469,0.195 2.0195,-0.816 3.1484,-3.047 3.1484,-5.723 0,-1.25 -0.25,-2.562 -0.7383,-3.847 -0.9335,-2.45 -2.6875,-4.414 -4.6562,-5.301 -0.8789,-0.379 -2.1875,-0.742 -3.5898,-0.184 z m 0.832,18.102 c -2.8594,-1.262 -5.2578,-3.902 -6.5352,-7.242 -1.3047,-3.36 -1.3047,-6.899 -0.0508,-9.782 0.9297,-2.093 2.5157,-3.675 4.4766,-4.445 1.9453,-0.738 4.1953,-0.633 6.3008,0.309 2.8711,1.242 5.2539,3.894 6.5625,7.215 2.3242,6.015 0.3008,12.359 -4.4492,14.218 -1.9532,0.778 -4.2032,0.672 -6.3047,-0.273"
         style="fill:#fccc22;fill-opacity:1;fill-rule:nonzero;stroke:none"
         id="path62" /><path
         d="m 74.5938,187.773 c -1.5391,0.489 -5.3165,1.59 -9.875,1.739 -3.2305,0.101 -6.379,1.968 -6.1836,2.922 0.1757,0.679 1.0039,1.046 2.3711,1.226 3.1093,0.449 9.871,0.074 17.1718,-1.101 -0.6133,-1.758 -1.6054,-3.387 -3.4843,-4.786"
         style="fill:#a3e1f9;fill-opacity:1;fill-rule:nonzero;stroke:none"
         id="path64" /><path
         d="m 86.0938,404.863 c -0.1172,-13.578 -10.5157,-17.855 -13.5235,-18.648 1.0078,3.015 5.2383,17.101 13.5235,18.648"
         style="fill:#ef2f2a;fill-opacity:1;fill-rule:nonzero;stroke:none"
         id="path66" /><path
         d="m 172.859,312.035 c 0,-4.961 -4.031,-8.988 -9.058,-8.988 h -15.379 c -5.039,0 -9.07,4.027 -9.07,8.988 0,4.918 4.031,8.918 9.07,8.918 h 15.379 c 5.027,0 9.058,-4 9.058,-8.918"
         style="fill:#fccc22;fill-opacity:1;fill-rule:nonzero;stroke:none"
         id="path68" /><path
         d="m 163.574,306.113 c -9.047,-0.097 -16.82,0.004 -16.82,0.004 0,0 12.723,0.774 20.801,9.391 2.125,-1.445 2.527,-9.36 -3.981,-9.395"
         style="fill:#df9824;fill-opacity:1;fill-rule:nonzero;stroke:none"
         id="path70" /><path
         d="m 103.223,182.379 c 9.812,-6.559 13.125,-16.231 13.125,-16.231 0,0 3.257,8.082 -1.207,14.36 8.925,2.601 24.437,-1.465 38.429,-6.938 20.547,-8.058 35.907,-10.722 51.551,-8.058 15.641,2.672 23.871,5.902 28.899,13.711 2.675,4.172 10.589,3.3 8.351,-2.957 -2.23,-6.266 -11.926,-24.149 -30.242,-29.078 -18.328,-4.899 -48.566,-13.11 -93.277,-1.922 -11.961,2.996 -40.0629,10.464 -51.5434,25.218 -2.3047,2.954 -2.8984,8.461 -3.0117,9.321 -0.1367,1.074 0.5703,1.633 3.0859,1.187 7.8711,-1.39 9.3633,1.621 12.3008,4.938 3.2187,0.418 14.5937,2.39 23.5394,-3.551"
         style="fill:#ffffff;fill-opacity:1;fill-rule:nonzero;stroke:none"
         id="path72" /><path
         d="M 239.094,177.523 C 225.43,151.547 199,147.512 171.352,146.676 c -11.219,-0.309 -22.426,1.074 -32.071,3.551 8.137,-0.832 16.535,-0.168 21.664,1.609 -1.996,10.426 -19.785,17.992 -32.179,18.668 -2.356,2.672 -3.036,6.156 -8.739,8.172 4.032,-3.692 3.703,-8.848 5.703,-11.524 10.161,-2.062 22.532,-4.656 28.508,-12.625 -2.105,-2.703 -20.468,-1.207 -30.476,1.078 -4.321,1.59 -8.817,4.192 -11.211,8.852 -4.781,-5.336 -12.375,-3.418 -20.1721,0.465 -0.1211,3.031 -1.9883,5.703 -6.0234,6.476 0.8789,-1.308 1.1015,-2.699 1.1093,-3.808 -8.8164,5.07 -17.2226,11.289 -21.4375,10.965 -5.9882,-0.457 13.0586,-33.883 29.1641,-37.45 47.7926,-27.558 127.6676,-15.453 146.6016,31.059 2.664,6.715 0.312,11.066 -2.699,5.359"
         style="fill:#409adb;fill-opacity:1;fill-rule:nonzero;stroke:none"
         id="path74" /><path
         d="m 88.1133,168.031 c 0.2656,-2.914 -2.0039,-5.535 -5.1289,-5.836 -3.0821,-0.347 -5.8281,1.797 -6.1289,4.731 -0.2774,2.937 1.9922,5.554 5.0937,5.863 3.0977,0.297 5.8594,-1.832 6.1641,-4.758"
         style="fill:#ffffff;fill-opacity:1;fill-rule:nonzero;stroke:none"
         id="path76" /><path
         d="m 85.4141,167.48 c 0,-1.445 -1.3282,-2.585 -2.9493,-2.585 -1.6054,0 -2.9257,1.14 -2.9257,2.585 0,1.43 1.3203,2.614 2.9257,2.614 1.6211,0 2.9493,-1.184 2.9493,-2.614"
         style="fill:#0d3258;fill-opacity:1;fill-rule:nonzero;stroke:none"
         id="path78" /><path
         d="m 222.41,215.129 c -3.285,-11.316 10.731,-26.582 10.731,-26.582 0,0 -6.356,19.797 -10.731,26.582"
         style="fill:#ffffff;fill-opacity:1;fill-rule:nonzero;stroke:none"
         id="path80" /><path
         d="m 232.234,212.695 c -4.824,-6.617 4.25,-21.703 4.25,-21.703 0,0 -0.5,12.067 -4.25,21.703"
         style="fill:#ffffff;fill-opacity:1;fill-rule:nonzero;stroke:none"
         id="path82" /><path
         d="m 247.418,195.473 c 3.816,8.273 11.414,16.539 19.48,19.453 -16.781,-2.031 -20.582,-13.18 -19.48,-19.453"
         style="fill:#ffffff;fill-opacity:1;fill-rule:nonzero;stroke:none"
         id="path84" /><path
         d="m 155.984,446.32 c -7.07,13.715 -17.195,3.153 -34.933,8.633 -3.125,-14.504 -6.262,-40.461 -7.156,-44.922 12.121,-3.64 22.777,7.676 37.25,-1.754 -1.551,18.719 4.476,34.305 4.476,34.305 0,0 0.195,2.293 0.363,3.738"
         style="fill:#ffffff;fill-opacity:1;fill-rule:nonzero;stroke:none"
         id="path86" /><path
         d="m 156.023,446.371 c -1.39,2.434 -2.742,4.488 -5.085,5.828 -2.086,-22.277 -2.602,-27.117 -9.676,-40.187 4.398,-0.567 7.633,-2.188 9.894,-3.785 -1.578,18.75 4.856,33.468 4.856,33.468 0,0 -0.028,3.887 0.011,4.676"
         style="fill:#a3e1f9;fill-opacity:1;fill-rule:nonzero;stroke:none"
         id="path88" /><path
         d="m 190.973,455.023 c -17.743,-5.492 -27.875,5.071 -34.95,-8.652 -0.011,-4.676 -0.027,-39.258 0.036,-41.84 17,15.883 28.668,1.547 42.054,5.571 -0.886,4.464 -4.027,30.402 -7.14,44.921"
         style="fill:#ffffff;fill-opacity:1;fill-rule:nonzero;stroke:none"
         id="path90" /><path
         d="m 151.09,379.031 v -11.457 h 9.855 v 11.457 h -9.855"
         style="fill:#fccc22;fill-opacity:1;fill-rule:nonzero;stroke:none"
         id="path92" /><path
         d="m 156.086,390.012 4.898,-8.563 -9.929,-0.047 z"
         style="fill:#fccc22;fill-opacity:1;fill-rule:nonzero;stroke:none"
         id="path94" /><path
         d="m 73.1289,356.172 v 0.062 c -0.082,0.036 -0.0742,-0.007 0,-0.062"
         style="fill:#199445;fill-opacity:1;fill-rule:nonzero;stroke:none"
         id="path96" /><path
         d="m 112.805,300.016 c 0,0 13.523,6.683 14.867,13.543 -4.192,4.031 -14.766,4.464 -14.766,4.464 0,0 12.145,9.243 11.633,15.954 -6.062,2.824 -16.859,1.183 -16.859,1.183 5.008,6.918 6.437,12.438 6.234,17.278 -6.301,1.054 -16.0429,-2.68 -16.0429,-2.68 0,0 3.2659,11.633 0.0469,17.668 -5.8321,1.562 -14.0664,-8.719 -14.0664,-8.719 0,0 -2.9258,12.715 -9.75,19.492 -6.8594,-6.777 -9.875,-19.492 -9.875,-19.492 0,0 -8.2071,10.281 -14.0703,8.719 -3.1797,-6.035 0.0781,-17.668 0.0781,-17.668 0,0 -9.7461,3.734 -16.0899,2.68 -0.1718,-4.84 1.2735,-10.36 6.2735,-17.278 0,0 -10.8125,1.641 -16.8516,-1.183 -0.5039,-6.711 11.6289,-15.954 11.6289,-15.954 0,0 -10.5859,-0.433 -14.7539,-4.464 1.3399,-6.86 14.8711,-13.543 14.8711,-13.543 0,0 -8.0508,-1.657 -12.9687,-7.223 3.125,-4.16 10.1796,-8.141 15.6992,-9.055 -4.7657,-3.836 -7.4336,-6.84 -8.6446,-9.086 7.7422,-6.261 23.9766,-7.14 40.2188,-2.086 0,-3.109 0.0469,-28.168 -3.7539,-39.644 h 16.3594 c -3.7852,11.476 -3.7422,36.535 -3.7422,39.644 16.2383,-5.054 32.4995,-4.175 40.2105,2.086 -1.207,2.246 -3.863,5.25 -8.597,9.086 5.508,0.914 12.527,4.895 15.668,9.055 -4.934,5.566 -12.957,7.223 -12.957,7.223"
         style="fill:#73c82c;fill-opacity:1;fill-rule:nonzero;stroke:none"
         id="path98" /><path
         d="m 98.0234,299.574 c 1.5157,0.848 9.3746,3.242 13.3906,10.235 -4.016,3.902 -13.3906,4.054 -13.3906,4.054 0,0 8.3436,5.489 11.1606,13.715 -7.164,2.086 -14.5981,0 -14.5981,0 0,0 6.0981,8.649 6.8551,15.942 -6.8551,-0.75 -14.148,-4.356 -14.148,-4.356 2.0664,4.508 3.1133,10.887 2.2148,16.426 -3.414,-0.688 -6.543,-4.59 -8.4101,-7.027 -1.7422,5.554 -4.6954,7.3 -6.711,8.414 -3.3359,-4.903 -4.0156,-8.079 -3.6015,-14.809 1.1328,1.117 2.9218,2.891 5.8242,4.57 1.7851,-9.59 -1.6211,-16.578 -1.6211,-16.578 0,0 4.2265,2.766 9.8164,3.426 0.2266,-5.301 -1.7149,-10.781 -7.2891,-17.262 0,0 4.9063,2.961 10.5742,3.422 -0.9023,-7.461 -5.457,-12.441 -10.1484,-16.699 3.1367,1.469 8.5078,1.328 12.2227,0.141 -1.9258,-5.665 -6.3399,-8.504 -12.793,-12.051 4,0 8.1016,-0.535 10.4141,-2.09 -2.6055,-4.852 -8.9375,-7.156 -13.3164,-8.41 10.1367,-3.875 19.9531,-5.485 29.5742,-3.153 -0.676,2.868 -4.3164,6.356 -8.5782,8.793 3.8946,0.887 9.6872,2.106 14.7692,6.426 -3.285,3.289 -7.32,5.5 -12.2106,6.871"
         style="fill:#199948;fill-opacity:1;fill-rule:nonzero;stroke:none"
         id="path100" /><path
         d="m 166.996,102.285 c 1.34,-1.562 2.258,-9.0623 -4.254,-9.6092 -11.172,-0.8672 -16.558,0.2539 -16.558,0.2539 0,0 15,1.7578 20.812,9.3553"
         style="fill:#df9824;fill-opacity:1;fill-rule:nonzero;stroke:none"
         id="path102" /><path
         d="m 217.418,331.973 c 0.68,9.172 5.027,11.312 10.957,11.179 3.344,-0.07 8.395,-0.121 20.609,-0.023 -6.882,-0.613 -15.461,-4.223 -16.582,-13.172 -1.039,-8.32 -1.097,-37.121 -1.312,-49.398 -6.035,-0.243 -14.117,-0.012 -15.895,-0.469 0.883,12.746 1.559,42.715 2.223,51.883"
         style="fill:#df9824;fill-opacity:1;fill-rule:nonzero;stroke:none"
         id="path104" /><path
         d="m 156.133,379.031 v -11.457 h 2.984 v 11.457 h -2.984"
         style="fill:#df9824;fill-opacity:1;fill-rule:nonzero;stroke:none"
         id="path106" /><path
         d="m 159.117,381.402 -3.031,8.61 v -8.563 z"
         style="fill:#df9824;fill-opacity:1;fill-rule:nonzero;stroke:none"
         id="path108" /><path
         d="m 287.789,45.7617 c 5.957,0 11.043,1.1797 14.688,3.4102 l 1.664,1.0039 -0.258,-5.918 -0.004,-31.043 c 0,-1.0078 -0.418,-1.8593 -1.266,-2.6406 C 300.688,8.63281 296.73,7.48047 292.32,7.59766 H 19.3516 C 14.8633,7.48047 10.8398,8.63281 8.87109,10.6055 8.07031,11.3867 7.67578,12.207 7.67578,13.1641 l -0.01562,25.2148 0.01562,5.625 c 0,-0.0781 -0.125,3.3789 -0.125,3.3789 L 7.49609,49.1016 9.02734,48.4063 C 12.7188,46.6484 17.6641,45.7617 23.7305,45.7617 H 287.789"
         style="fill:#0d3258;fill-opacity:1;fill-rule:nonzero;stroke:none"
         id="path110" /><path
         d="m 287.789,45.7617 c 5.957,0 11.043,1.1797 14.688,3.4102 l 1.664,1.0039 -0.258,-5.918 -0.004,-31.043 c 0,-1.0078 -0.418,-1.8593 -1.266,-2.6406 C 300.688,8.63281 296.73,7.48047 292.32,7.59766 H 19.3516 C 14.8633,7.48047 10.8398,8.63281 8.87109,10.6055 8.07031,11.3867 7.67578,12.207 7.67578,13.1641 l -0.01562,25.2148 0.01562,5.625 c 0,-0.0781 -0.125,3.3789 -0.125,3.3789 L 7.49609,49.1016 9.02734,48.4063 C 12.7188,46.6484 17.6641,45.7617 23.7305,45.7617 Z"
         style="fill:none;stroke:#0d3258;stroke-width:4.93307;stroke-linecap:butt;stroke-linejoin:miter;stroke-miterlimit:4;stroke-dasharray:none;stroke-opacity:1"
         id="path112" /><path
         d="m 269.449,78.2539 c 2.699,-24.582 -0.25,-20.7422 0,-27.793 2.313,-0.5976 20.832,-4.1914 27.477,-0.6054 6.648,3.6015 10.375,5.3203 7.304,8.9218 -3.074,3.586 -18.402,13.3008 -24.542,14.3282 -6.133,1.0547 -8.567,3.3203 -10.239,5.1484"
         style="fill:#a3e1f9;fill-opacity:1;fill-rule:nonzero;stroke:none"
         id="path114" /><path
         d="m 43.6719,77.4609 c 2.2969,-7.6757 -4.2383,-19.5 0.125,-28.0742 -3.7188,0.1367 -25.4375,-0.8789 -29.5547,0.6328 -4.32032,1.5899 -13.562512,4.7852 -4.35548,9.8164 9.21488,4.9766 32.50778,13.9414 33.78518,17.625"
         style="fill:#a3e1f9;fill-opacity:1;fill-rule:nonzero;stroke:none"
         id="path116" /><path
         d="m 287.789,45.7617 c 5.957,0 11.043,1.1797 14.688,3.4102 l 1.664,1.0039 -0.258,-5.918 -0.004,-31.043 c 0,-1.0078 -0.418,-1.8593 -1.266,-2.6406 C 300.688,8.63281 296.73,7.48047 292.32,7.59766 H 19.3516 C 14.8633,7.48047 10.8398,8.63281 8.87109,10.6055 8.07031,11.3867 7.67578,12.207 7.67578,13.1641 l -0.01562,25.2148 0.01562,5.625 c 0,-0.0781 -0.125,3.3789 -0.125,3.3789 L 7.49609,49.1016 9.02734,48.4063 C 12.7188,46.6484 17.6641,45.7617 23.7305,45.7617 Z m -16.91,8.9571 c 1.363,3.3281 2.027,6.1406 2.027,8.5937 0,1.9609 -0.367,3.5742 -0.711,5.125 -0.062,0.2734 -0.203,1.1641 -0.203,1.1641 l -0.453,3.3086 2.09,-1.8243 c 3.816,-3.4101 8.445,-5.1562 12.172,-6.582 0.035,-0.0117 4.047,-1.6601 4.047,-1.6601 0.09,-0.0508 3.961,-2.1524 3.961,-2.1524 1.996,-1.3555 3.464,-2.9961 4.136,-4.5195 l 0.422,-0.9688 -0.972,-0.4062 c -1.649,-0.6758 -4.653,-1.4844 -9.606,-1.4844 h -17.5 z m -256.7462,-0.293 -1.0664,0.293 0.3594,1.0546 c 0.6758,1.8829 2.6758,4.0235 5.3633,5.6524 0.2187,0.1172 1.8672,0.957 1.8672,0.957 0.1289,0.0664 5.0312,2.1211 5.0312,2.1211 3.7695,1.4141 8.4063,3.1524 12.2383,6.582 l 2.1367,1.9024 -0.5156,-3.4649 -0.1367,-0.8515 c -0.3516,-1.5156 -0.7579,-3.25 -0.7579,-5.3594 0,-2.5234 0.6524,-5.332 1.9844,-8.5937 l 0.5938,-1.4063 h -17.5 c -3.6992,0 -6.9297,0.3711 -9.5977,1.1133 z M 46.332,87.3047 C 40.2109,78.9375 30.5781,74.8828 22.0508,71.2891 c 0.0234,0.0195 -4,-1.8477 -4,-1.8477 -0.168,-0.0469 -3.9258,-1.7461 -3.9258,-1.7461 -0.0625,-0.039 -1.4258,-0.6328 -1.4336,-0.6328 v 0 c 0,-0.0234 -2.1992,-1.2812 -2.1992,-1.2812 C 4.16406,62.3711 0,57.8906 0,46.9414 L 0.109375,43.75 V 38.3789 L 0.117188,13.0977 c 0,-2.9493 1.214842,-5.69536 3.511722,-7.93364 C 7.125,1.73828 12.8906,-0.15625 19.4336,0.0117188 H 292.211 c 6.484,-0.1679688 12.203,1.7265612 15.715,5.1523412 2.293,2.19922 3.496,4.98434 3.496,8.00004 l 0.031,25.4101 -0.004,5.4297 c 0,0.0391 0.121,3.8945 0.121,3.8945 0,9.4258 -2.886,13.0391 -7.863,16.0547 -0.109,0.0782 -4.906,3.125 -4.906,3.125 -0.016,0.0117 -5.656,2.5508 -5.656,2.5508 -0.137,0.0899 -0.454,0.2734 -0.454,0.2734 0.106,-0.0898 -3.226,1.4063 -3.226,1.4063 -8.492,3.5742 -18.141,7.6289 -24.274,15.9961 0,0 -0.328,0.4375 -0.695,0.9687 -0.141,-0.5468 -0.308,-1.1836 -0.308,-1.1836 -0.512,-1.9609 -0.758,-3.875 -0.758,-5.8906 0,-3.6719 0.867,-6.9531 1.879,-10.7695 1.168,-4.3164 2.539,-9.3828 2.765,-16.0664 l 0.035,-1.0508 H 43.4219 l 0.0351,1.0508 c 0.2344,6.6719 1.6055,11.7305 2.7032,15.8008 1.0117,3.7812 1.9609,7.3086 1.9609,11.0351 0,1.9063 -0.25,3.8789 -0.7539,5.9024 0,0 -0.1484,0.5547 -0.3125,1.1875 -0.332,-0.4571 -0.7227,-0.9844 -0.7227,-0.9844"
         style="fill:#ffffff;fill-opacity:1;fill-rule:nonzero;stroke:none"
         id="path118" /><path
         d="m 19.4883,36.8242 h 5.8398 l 4.0586,-11.3047 c 0.086,-0.2539 0.3047,-1.1562 0.6563,-2.7265 0.3867,1.5703 0.6367,2.4726 0.7383,2.7265 l 3.9609,11.3047 h 5.8711 l -8.461,-20.2226 h -4.1835 l -8.4805,20.2226"
         style="fill:#ffffff;fill-opacity:1;fill-rule:nonzero;stroke:none"
         id="path120" /><path
         d="M 43.7969,36.8242 V 16.6016 h 5.5937 v 20.2226 h -5.5937"
         style="fill:#ffffff;fill-opacity:1;fill-rule:nonzero;stroke:none"
         id="path122" /><path
         d="m 66.043,24.1406 -2.0586,6.6485 c -0.086,0.3437 -0.3321,1.25 -0.6797,2.7343 -0.3633,-1.4843 -0.6211,-2.3906 -0.707,-2.7343 l -2.0469,-6.6485 z m -6.2188,12.6836 h 6.8985 l 6.9726,-20.2226 h -5.4805 l -1.0039,3.6328 h -7.8203 l -1.0664,-3.6328 h -5.4687 l 6.9687,20.2226"
         style="fill:#ffffff;fill-opacity:1;fill-rule:nonzero;stroke:none"
         id="path124" /><path
         d="m 84.5898,36.8242 h 5.8633 l 4.043,-11.3047 c 0.0937,-0.2539 0.2891,-1.1562 0.6758,-2.7265 0.3515,1.5703 0.6172,2.4726 0.6914,2.7265 l 4.0234,11.3047 h 5.8363 L 97.2656,16.6016 H 93.082 l -8.4922,20.2226"
         style="fill:#ffffff;fill-opacity:1;fill-rule:nonzero;stroke:none"
         id="path126" /><path
         d="m 108.785,36.8242 h 12.375 v -4.4531 h -7.019 v -3.5039 h 6.617 v -4.3047 h -6.617 v -3.4492 h 7.019 v -4.5117 h -12.375 v 20.2226"
         style="fill:#ffffff;fill-opacity:1;fill-rule:nonzero;stroke:none"
         id="path128" /><path
         d="m 132.406,27.2578 c 2.297,0 3.41,0.7305 3.41,2.5274 0,2.1093 -1.043,2.7539 -3.339,2.7539 h -1.11 v -5.2813 z m -6.207,9.5664 h 5.766 c 0.125,0 0.226,0 0.34,0 2.789,0 4.945,-0.0273 6.687,-1.375 1.446,-1.1328 2.238,-2.8515 2.238,-4.9531 0,-3.1133 -1.574,-5.1133 -4.507,-5.75 l 5.507,-8.1445 h -6.222 l -4.641,7.9218 v -7.9218 h -5.168 v 20.2226"
         style="fill:#ffffff;fill-opacity:1;fill-rule:nonzero;stroke:none"
         id="path130" /><path
         d="M 145.863,36.8242 V 16.6016 h 5.578 v 20.2226 h -5.578"
         style="fill:#ffffff;fill-opacity:1;fill-rule:nonzero;stroke:none"
         id="path132" /><path
         d="m 160.195,32.0391 h -4.504 v 4.7851 h 14.528 v -4.7851 h -4.528 V 16.6016 h -5.496 v 15.4375"
         style="fill:#ffffff;fill-opacity:1;fill-rule:nonzero;stroke:none"
         id="path134" /><path
         d="m 185.133,24.1406 -2.067,6.6485 c -0.082,0.3437 -0.308,1.25 -0.679,2.7343 -0.356,-1.4843 -0.625,-2.3906 -0.715,-2.7343 l -2.027,-6.6485 z m -6.219,12.6836 h 6.875 l 6.984,-20.2226 h -5.46 l -1.04,3.6328 h -7.812 l -1.035,-3.6328 h -5.492 l 6.98,20.2226"
         style="fill:#ffffff;fill-opacity:1;fill-rule:nonzero;stroke:none"
         id="path136" /><path
         d="m 201.836,20.3828 c 1.5,0 2.512,0.8672 2.512,2.0664 0,1.6211 -1.118,2.1133 -3.407,2.6992 -3.621,0.9454 -5.398,2.4297 -5.398,5.5664 0,3.7579 2.727,6.5586 6.961,6.5586 2.266,0 4.242,-0.5859 5.973,-1.7929 l -1.715,-3.9492 c -1.27,1.0664 -2.617,1.6054 -3.864,1.6054 -1.351,0 -2.25,-0.7344 -2.25,-1.6836 0,-1.4648 1.422,-1.7656 3.231,-2.2539 3.578,-0.957 5.574,-2.2656 5.574,-6.0156 0,-4.168 -3.004,-7.1094 -7.734,-7.1094 -2.856,0 -5.02,0.8985 -7.18,2.9688 l 2.473,4.082 c 1.625,-1.8555 3.218,-2.7422 4.824,-2.7422"
         style="fill:#ffffff;fill-opacity:1;fill-rule:nonzero;stroke:none"
         id="path138" /><path
         d="m 221.492,36.8242 h 5.863 l 4.051,-11.3047 c 0.078,-0.2539 0.305,-1.1562 0.649,-2.7265 0.383,1.5703 0.64,2.4726 0.718,2.7265 l 4.004,11.3047 h 5.864 L 234.16,16.6016 h -4.176 l -8.492,20.2226"
         style="fill:#ffffff;fill-opacity:1;fill-rule:nonzero;stroke:none"
         id="path140" /><path
         d="M 245.828,36.8242 V 16.6016 h 5.567 v 20.2226 h -5.567"
         style="fill:#ffffff;fill-opacity:1;fill-rule:nonzero;stroke:none"
         id="path142" /><path
         d="m 260.145,32.0391 h -4.481 v 4.7851 h 14.508 v -4.7851 h -4.527 V 16.6016 h -5.5 v 15.4375"
         style="fill:#ffffff;fill-opacity:1;fill-rule:nonzero;stroke:none"
         id="path144" /><path
         d="m 285.078,24.1406 -2.066,6.6485 c -0.078,0.3437 -0.297,1.25 -0.657,2.7343 -0.39,-1.4843 -0.617,-2.3906 -0.707,-2.7343 l -2.023,-6.6485 z m -6.207,12.6836 h 6.899 l 6.984,-20.2226 h -5.496 l -1.008,3.6328 h -7.82 l -1.063,-3.6328 h -5.476 l 6.98,20.2226"
         style="fill:#ffffff;fill-opacity:1;fill-rule:nonzero;stroke:none"
         id="path146" /><path
         d="m 608.629,476.281 v -5.605 c -19.93,-0.332 -27.051,-8.352 -27.051,-27.352 v -80.226 c 0,-36.848 -23.457,-76.383 -87.961,-76.383 -56.746,0 -85.851,32.379 -85.851,74.879 v 86.769 c 0,19.032 -5.348,21.981 -25.563,22.313 v 5.605 h 76.375 v -5.605 h -2.683 c -16.325,0 -23.469,-4.5 -23.469,-21.719 v -82.609 c 0,-40.098 23.469,-64.168 67.746,-64.168 33.578,0 67.754,13.965 67.754,64.437 v 69.262 c 0,28.527 -4.473,33.566 -29.125,34.797 v 5.605 h 69.828"
         style="fill:#ffffff;fill-opacity:1;fill-rule:nonzero;stroke:none"
         id="path148" /><path
         d="m 642.191,317.32 c 0,-16.336 3.864,-20.23 19.911,-20.23 v -5.629 h -59.719 v 5.629 c 13.062,0 19.898,7.152 19.898,18.738 v 62.391 c 0,11 -1.203,13.082 -8.914,14.558 l -10.113,2.086 v 4.75 l 34.184,12.492 h 4.753 v -23.16 c 19.911,12.465 36.543,23.453 51.11,23.453 20.211,0 31.789,-14.843 31.789,-44.546 0,-39.516 -2.078,-47.239 -2.363,-58.852 -0.321,-8.016 4.441,-11.91 16.628,-11.91 h 6.547 v -5.629 h -63.871 v 5.629 c 8.59,0.328 13.637,2.39 16.907,5.664 5.64,5.66 6.242,27.359 6.242,66.851 0,23.778 -11.575,31.227 -23.492,31.227 -9.497,0 -24.043,-8.332 -39.497,-19.023 V 317.32"
         style="fill:#ffffff;fill-opacity:1;fill-rule:nonzero;stroke:none"
         id="path150" /><path
         d="m 786.809,480.754 c 7.132,0 13.05,-5.039 13.05,-11.309 0,-6.222 -5.918,-11.285 -13.05,-11.285 -7.157,0 -12.786,5.063 -12.786,11.285 0,6.27 5.629,11.309 12.786,11.309 z m 12.175,-166.695 c 0,-10.422 5.649,-16.969 21.391,-16.969 v -5.629 h -65.961 v 5.629 c 18.113,0 24.656,5.953 24.656,21.723 v 59.707 c 0,11.609 -1.476,13.074 -9.199,14.578 l -13.969,2.679 v 4.743 l 38.614,13.382 h 4.468 v -99.843"
         style="fill:#ffffff;fill-opacity:1;fill-rule:nonzero;stroke:none"
         id="path152" /><path
         d="m 880.898,288.801 -43.082,98.625 c -4.461,10.406 -8.328,13.984 -13.086,14.883 l -9.203,1.472 v 5.356 h 60.621 v -5.356 c -18.14,-0.586 -23.785,-2.949 -16.652,-16.91 l 31.524,-74.012 30.281,68.641 c 5.359,12.207 2.676,20.809 -18.988,22.281 v 5.356 h 51.695 v -5.356 c -11.281,-2.078 -17.856,-8.601 -23.496,-21.687 l -40.981,-93.293 h -8.633"
         style="fill:#ffffff;fill-opacity:1;fill-rule:nonzero;stroke:none"
         id="path154" /><path
         d="m 1033.83,374.668 c -3.26,19.301 -15.14,32.102 -29.43,32.102 -9.798,0 -24.642,-4.461 -31.49,-32.102 z m -61.834,-7.719 c -0.555,-4.484 -1.144,-8.613 -1.144,-12.476 0,-30.903 21.668,-51.719 45.138,-51.719 14.87,0 26.45,5.941 37.76,19.332 l 3.25,-3.555 c -12.47,-15.777 -31.19,-30.64 -52.88,-30.64 -29.12,0 -51.686,26.449 -51.686,60.933 0,31.504 21.082,63.574 57.336,63.574 40.08,0 39.22,-28.808 49.02,-38.621 v -6.828 h -86.794"
         style="fill:#ffffff;fill-opacity:1;fill-rule:nonzero;stroke:none"
         id="path156" /><path
         d="m 1112.87,313.164 c 0,-12.18 4.46,-16.074 19.31,-16.074 h 11.29 v -5.629 h -70.43 v 5.629 c 15.17,0.328 19.92,6.547 19.92,22.32 v 68.617 l -19.92,7.153 v 5.047 l 33.86,11.878 h 5.97 v -31.484 h 0.59 c 14.85,24.371 18.41,29.996 28.22,29.996 3.58,0 4.46,-0.301 10.1,-2.672 2.99,-1.175 8.34,-2.394 15.45,-4.437 l -7.11,-17.852 c -4.47,0.594 -10.13,2.09 -15.77,4.778 -3.25,1.492 -6.82,2.949 -10.41,2.949 -5.31,0 -8.59,-3.598 -11.58,-7.727 -3.85,-5.328 -7.11,-10.422 -9.49,-14.843 v -57.649"
         style="fill:#ffffff;fill-opacity:1;fill-rule:nonzero;stroke:none"
         id="path158" /><path
         d="m 1183.96,321.492 c 3.54,-17.855 14.84,-27.941 28.21,-27.941 11.89,0 21.1,8.91 21.1,19.613 0,6.246 -1.49,10.102 -9.52,18.141 -21.09,21.082 -44.56,23.168 -44.56,47.828 0,19.609 15.47,33.265 38.03,33.265 8.02,0 16.34,-1.781 23.78,-4.75 l 0.59,-27.027 h -5.06 c -2.08,15.156 -11.87,24.649 -23.76,24.649 -9.8,0 -18.11,-6.84 -18.11,-16.633 0,-26.172 55.25,-30.61 55.25,-66.852 0,-19.324 -16.06,-33.894 -36.85,-33.894 -5.65,0 -9.79,0.91 -13.07,2.082 -3.26,0.906 -5.66,1.781 -8.01,1.781 -1.78,0 -3.57,-1.172 -5.05,-3.551 h -4.47 l -3.27,33.289 h 4.77"
         style="fill:#ffffff;fill-opacity:1;fill-rule:nonzero;stroke:none"
         id="path160" /><path
         d="m 1296.65,480.754 c 7.13,0 13.05,-5.039 13.05,-11.309 0,-6.222 -5.92,-11.285 -13.05,-11.285 -7.14,0 -12.78,5.063 -12.78,11.285 0,6.27 5.64,11.309 12.78,11.309 z m 12.17,-166.695 c 0,-10.422 5.65,-16.969 21.4,-16.969 v -5.629 h -65.98 v 5.629 c 18.16,0 24.68,5.953 24.68,21.723 v 59.707 c 0,11.609 -1.48,13.074 -9.2,14.578 l -13.99,2.679 v 4.743 l 38.64,13.382 h 4.45 v -99.843"
         style="fill:#ffffff;fill-opacity:1;fill-rule:nonzero;stroke:none"
         id="path162" /><path
         d="m 1408,409.137 -4.74,-13.078 h -31.99 v -69.227 c 0,-18.707 13.39,-24.977 19.61,-24.977 6.56,0 12.47,5.079 18.12,14.903 l 4.76,-4.473 c -7.12,-15.472 -18.73,-24.394 -32.4,-24.394 -17.51,0 -30,14.57 -30,34.468 v 73.7 h -13.67 v 4.773 c 11.6,5.625 21.7,19.297 28.53,37.734 h 5.05 V 409.137 H 1408"
         style="fill:#ffffff;fill-opacity:1;fill-rule:nonzero;stroke:none"
         id="path164" /><path
         d="m 1518.94,376.156 c 8.92,22.586 3.25,27.039 -14.26,27.625 v 5.356 h 49.31 v -5.356 c -12.18,-1.472 -18.99,-9.812 -24.65,-23.769 L 1478.8,254.023 c -8.87,-21.984 -15.72,-31.796 -26.12,-31.796 -7.14,0 -12.18,4.472 -12.18,10.41 0,12.183 17.23,9.199 24.65,16.648 3.28,3.278 7.74,10.992 10.11,16.922 l 8.91,22.313 -46.04,97.73 c -5.66,12.18 -10.99,17.258 -23.49,17.531 v 5.356 h 59.74 v -5.356 c -18.13,-0.273 -20.21,-5.633 -14.26,-18.125 l 33.58,-72.492 25.24,62.992"
         style="fill:#ffffff;fill-opacity:1;fill-rule:nonzero;stroke:none"
         id="path166" /><path
         d="m 446.688,180.02 c -18.723,0 -35.356,-35.95 -35.356,-65.665 0,-24.9292 10.684,-37.1362 20.793,-37.1362 23.77,0 37.742,38.6332 37.742,65.9572 0,20.828 -10.105,36.844 -23.179,36.844 z m 15.16,11.003 c 8.605,0 27.035,-11.867 27.035,-43.71 0,-56.4341 -56.164,-81.0903 -70.121,-81.0903 -13.961,0 -26.442,22.2734 -26.442,46.9533 0,48.117 51.7,77.847 69.528,77.847"
         style="fill:#ffffff;fill-opacity:1;fill-rule:nonzero;stroke:none"
         id="path168" /><path
         d="m 499.48,177.648 0.903,5.641 c 7.137,0.895 14.269,2.094 21.695,3.883 4.453,24.355 13.367,49.898 30,66.539 10.399,10.391 23.488,16.047 35.067,16.047 11.601,0 21.085,-6.535 21.085,-14.254 0,-4.742 -3.566,-8.629 -8.328,-8.629 -9.781,0 -17.824,12.188 -26.429,12.188 -11.598,0 -21.086,-13.071 -25.254,-32.684 l -8.02,-38.93 h 25.547 l -2.969,-9.801 H 538.402 L 523.262,90.8789 C 511.672,24.3242 477.789,0.574219 449.863,0.574219 c -12.461,0 -22.871,6.222661 -22.871,13.656281 0,4.7617 4.762,8.9218 9.821,8.9218 10.976,0 16.914,-13.0859 28.207,-13.0859 6.843,0 12.769,3.2852 18.14,8.6172 14.844,14.8633 20.488,65.6406 21.676,72.7695 l 15.152,86.1949 H 499.48"
         style="fill:#ffffff;fill-opacity:1;fill-rule:nonzero;stroke:none"
         id="path170" /><path
         d="M 783.199,83.7617 C 753.793,68.5938 716.063,65.0508 703.578,65.0508 c -65.062,0 -95.375,50.1912 -95.375,93.5942 0,44.558 31.211,100.418 103.707,100.418 31.781,0 52.879,-10.098 59.11,-10.098 2.687,0 5.074,0.574 6.847,2.066 h 4.153 v -48.136 h -5.926 c -8.051,37.144 -33.297,48.73 -60.922,48.73 -52.297,0 -79.043,-43.387 -79.043,-91.227 0,-60.8941 42.793,-87.9175 76.957,-87.9175 13.676,0 28.812,2.957 45.469,11.2812 v 37.4373 c 0,16.914 -5.938,22.578 -23.766,22.578 h -11.012 v 5.332 H 804 v -5.332 c -14.844,-0.894 -20.801,-5.957 -20.801,-18.711 V 83.7617"
         style="fill:#ffffff;fill-opacity:1;fill-rule:nonzero;stroke:none"
         id="path172" /><path
         d="m 848.691,93.2617 c 0,-12.1758 5.657,-17.8242 17.231,-17.8242 h 5.07 v -5.6523 h -66.847 v 5.6523 c 19,0 24.644,5.6484 24.644,19.9141 V 238.844 c 0,8.351 -0.894,10.992 -9.203,11.918 l -13.356,1.488 v 5.02 l 38.012,12.187 h 4.449 V 93.2617"
         style="fill:#ffffff;fill-opacity:1;fill-rule:nonzero;stroke:none"
         id="path174" /><path
         d="m 944.457,125.066 c -5.648,-3.281 -10.398,-5.371 -17.527,-8.336 -18.137,-7.421 -24.957,-10.414 -24.957,-22.6089 0,-10.6758 8.593,-17.4883 17.535,-17.4883 4.746,0 8.32,1.4649 24.949,13.0625 z m -58.82,27.02 c -0.594,1.812 -0.903,2.68 -0.903,4.168 0,10.418 24.661,34.484 43.973,34.484 8.934,0 22.871,-4.175 31.18,-15.781 4.476,-6.246 4.476,-10.094 4.476,-25.531 v -39.817 c 0,-23.7809 0,-29.1285 7.746,-29.1285 3.243,0 7.114,0.3203 14.536,6.5429 l 1.484,-4.4726 c -16.02,-13.0586 -24.363,-16.3281 -29.414,-16.3281 -12.184,0 -13.363,13.3867 -13.656,18.1015 -20.496,-16.9023 -26.442,-18.1015 -34.493,-18.1015 -17.211,0 -27.613,9.8125 -27.613,24.3515 0,18.1168 16.047,24.3598 35.059,29.1208 6.242,1.504 16.047,5.063 26.445,11.313 v 23.469 c 0,8.32 0,13.089 -5.062,19.015 -3.844,4.77 -10.079,8.61 -16.629,8.61 -9.801,0 -18.43,-8.325 -18.43,-14.536 0,-1.804 0.305,-2.98 1.488,-5.664 l -20.187,-9.816"
         style="fill:#ffffff;fill-opacity:1;fill-rule:nonzero;stroke:none"
         id="path176" /><path
         d="m 1002.76,99.8047 c 3.59,-17.8242 14.86,-27.957 28.27,-27.957 11.87,0 21.08,8.9531 21.08,19.6054 0,6.2735 -1.48,10.1169 -9.53,18.1559 -21.06,21.067 -44.549,23.184 -44.549,47.832 0,19.614 15.449,33.297 38.029,33.297 8.01,0 16.34,-1.808 23.77,-4.761 l 0.59,-27.047 h -5.05 c -2.09,15.164 -11.88,24.668 -23.78,24.668 -9.8,0 -18.11,-6.84 -18.11,-16.641 0,-26.144 55.27,-30.602 55.27,-66.867 0,-19.2892 -16.05,-33.8673 -36.85,-33.8673 -5.63,0 -9.81,0.8789 -13.08,2.0586 -3.24,0.9296 -5.64,1.7851 -8.01,1.7851 -1.8,0 -3.55,-1.1523 -5.04,-3.5508 h -4.5 l -3.239,33.2891 h 4.729"
         style="fill:#ffffff;fill-opacity:1;fill-rule:nonzero;stroke:none"
         id="path178" /><path
         d="m 1135.57,185.066 c -11.3,0 -28.82,-6.234 -28.82,-33.871 0,-17.511 8.92,-41.007 31.51,-41.007 17.21,0 28.51,14.265 28.51,34.785 0,25.531 -13.07,40.093 -31.2,40.093 z m 8.32,-176.16756 c 25.26,0 49.02,16.62886 49.02,35.34766 0,10.9805 -9.19,16.6445 -19.92,17.5117 -7.71,0.9063 -45.13,1.2227 -53.75,2.3906 -8.33,-9.7851 -19.33,-13.9609 -19.33,-25.5273 0,-14.0039 19.61,-29.72266 43.98,-29.72266 z M 1211.35,163.07 c -4.47,0.289 -18.44,1.516 -29.72,3.602 1.78,-3.313 5.04,-9.508 5.04,-19.024 0,-21.996 -18.99,-43.109 -51.98,-43.109 -5.64,0 -8.32,0.609 -13.68,2.387 -4.75,-5.063 -18.11,-8.3127 -18.11,-15.1408 0,-7.461 12.77,-10.4063 42.48,-10.6993 33.58,-0.2851 45.16,-1.8007 54.09,-10.7031 7.11,-7.1523 8.89,-14.5547 8.89,-20.7812 0,-19.3203 -26.15,-49.027381 -81.11,-49.027381 -30.89,0 -45.75,13.656281 -45.75,28.226581 0,17.2148 18.13,19.8828 31.79,36.5039 -16.04,1.5195 -28.23,11.5976 -28.23,21.1094 0,13.6759 19.93,14.2699 30.32,21.9919 -18.13,7.129 -28.53,19.907 -28.53,36.86 0,25.562 22.87,45.472 52.28,45.472 13.68,0 25.27,-4.175 33.29,-11.906 13.35,0 25.85,1.512 38.93,2.981 V 163.07"
         style="fill:#ffffff;fill-opacity:1;fill-rule:nonzero;stroke:none"
         id="path180" /><path
         d="m 1285.72,73.3594 c 17.52,0 37.4,17.8398 37.4,47.5386 0,33.868 -20.76,62.7 -45.72,62.7 -19.62,0 -37.76,-20.239 -37.76,-45.778 0,-35.957 20.53,-64.4606 46.08,-64.4606 z m -4.17,117.3786 c 36.26,0 63.87,-27.039 63.87,-62.425 0,-35.0513 -27.61,-62.0903 -62.98,-62.0903 -36.83,0 -65.06,26.7382 -65.06,61.4803 0,41.008 33.27,63.035 64.17,63.035"
         style="fill:#ffffff;fill-opacity:1;fill-rule:nonzero;stroke:none"
         id="path182" /><path
         d="m 1483.31,67.1016 -35.38,83.7964 -35.65,-83.7964 h -8.3 l -44.31,99.8554 c -4.14,9.211 -8.33,13.664 -21.98,15.145 v 5.347 h 57.66 v -5.347 c -17.54,-0.879 -18.73,-5.934 -12.48,-19.891 l 32.08,-71.6368 29.13,68.9528 c -6.55,15.125 -11.6,20.493 -22.01,21.696 l -7.12,0.879 v 5.347 h 61.49 v -5.347 c -14.55,-0.289 -18.98,-4.743 -12.76,-19.586 l 29.11,-70.7308 28.53,69.5078 c 6.54,15.762 1.49,20.809 -17.24,20.809 v 5.347 h 49.91 v -5.347 c -11.28,-1.161 -18.42,-6.825 -24.37,-21.379 l -38.3,-93.6214 h -8.01"
         style="fill:#ffffff;fill-opacity:1;fill-rule:nonzero;stroke:none"
         id="path184" /></g></g></svg>
