<?xml version="1.0" encoding="UTF-8"?>
<svg id="Calque_1" data-name="Calque 1" xmlns="http://www.w3.org/2000/svg" xmlns:xlink="http://www.w3.org/1999/xlink" viewBox="27 44 370 198">
  <defs>
    <style>
      .cls-1 {
        fill: none;
      }

      .cls-2, .cls-3 {
        fill: none;
      }

      .cls-3 {
        clip-path: url(#clippath);
      }

      .cls-4 {
        fill: #fff;
      }
    </style>
    <clipPath id="clippath">
      <rect class="cls-2" x="28.25" y="45.98" width="368.19" height="194.49"/>
    </clipPath>
  </defs>
  <rect class="cls-1" width="425.2" height="283.46"/>
  <g class="cls-3">
    <path class="cls-4" d="m222.72,143.23c0-53.71-43.53-97.25-97.23-97.25S28.25,89.52,28.25,143.23s43.54,97.24,97.24,97.24,97.23-43.54,97.23-97.24m-48.13-3.3c0-.08.01-.16.03-.23.09-.5.53-.88,1.06-.88h.03c.34,0,.65.16.86.41l1.96,2.28c.25.2.39.52.39.87v10.82c0,.59-.48,1.08-1.08,1.08h-2.16c-.6,0-1.08-.49-1.08-1.08v-13.27m-74.39,4.42h0c.01-.61.51-1.09,1.12-1.09h2.58c.62,0,1.12.49,1.12,1.11h0c.78,6.1,3.61,11.34,7.77,15.14,4.48,4.1,9.41,6.02,16.4,6.02h1.29s0,0,0,0c.61.01,1.19.51,1.09,1.12l-.36,2.22c-.12.74-.57,1.11-1.19,1.11h-.92c-7.42,0-14.3-2.65-19.54-7.46-5.1-4.69-8.52-10.96-9.35-18.15h0v-.02Zm30.9,7.89c.28.34.33.86.1,1.3-.24.45-.59.54-1.03.5h-15.11c-.33,0-.81.02-1.02-.15-.52-.28-.38-.92-.08-1.5l7.22-14.56c.17-.4.6-.69,1.11-.69s.79.29.96.69l1.29,2.16s.2.65.2.86-.07.43-.2.6c-.08.16-2.68,5.4-4.16,8.31h8.67c.21-.04.43.06.62.16.18.1.42.45.42.45l.99,1.86Zm-67.69-2.08c2.41,0,4.65-.76,6.47-2.07v-8.33s-.01-.06-.01-.1c0-.08,0-.15.02-.23.1-.5.53-.88,1.06-.88h.03c.34,0,.66.16.86.41l1.97,2.28c.25.2.39.53.39.87v7.54s.08.41-.37.79c-2.75,2.51-6.41,4.04-10.42,4.04-5.96,0-10.79-4.83-10.79-10.59v-14.39c0-.8.48-1.29,1.08-1.29h2.15c.6,0,1.08.48,1.08,1.08v14.39c0,3.57,2.9,6.47,6.47,6.47m11.12-21.45l14.77,16.87v-10.26c0-.59.49-1.08,1.09-1.08h2.16c.6,0,1.08.48,1.08,1.08v18.34h0v.05c0,.62-.51,1.11-1.12,1.11-.24,0-.62-.07-.93-.39l-21.74-24.32c-.2-.19-.32-.46-.32-.77,0-.59.49-1.07,1.08-1.07h3.06c.36,0,.68.17.87.44m19.46-.64c0,.6-.48,1.08-1.08,1.08h-2.88c-.6,0-1.08-.49-1.08-1.08v-2.16c0-.59.48-1.08,1.08-1.08h2.88c.6,0,1.08.49,1.08,1.08v2.16Zm37.93-12.53c.1.61-.49,1.1-1.09,1.12,0,0,0,0,0,.01h-1.29c-6.98,0-12.29,2.16-16.76,6.27-4.15,3.81-6.99,8.8-7.77,14.89h0c0,.61-.5,1.11-1.12,1.11h-2.58c-.61,0-1.11-.49-1.12-1.09h0v-.02h0c.83-7.19,4.25-13.47,9.35-18.16,5.24-4.81,12.12-7.46,19.54-7.46h.57s.71,0,.71,0c.61,0,1.03.37,1.16,1.11l.39,2.21Zm10.29,37.52c.06.6-.49.98-1.08.98h-2.72c-.59,0-.86-.35-1.06-.84,0,0-12.03-21.55-12.15-21.81-.11-.17-.17-.38-.17-.59s.15-.58.15-.58l1.18-2.47c.16-.4.55-.69,1.01-.69h.06c.46,0,.85.29,1.01.69l13.58,24.7c.02.07.17.41.2.63m23.9-21.61c0,.6-.48,1.08-1.08,1.08h-16.19c-.59,0-1.08-.48-1.08-1.08v-2.16c0-.6.49-1.08,1.08-1.08h16.19c.6,0,1.08.48,1.08,1.08v2.16Zm0,10.8c0,.6-.48,1.08-1.08,1.08h-16.19c-.59,0-1.08-.48-1.08-1.08v-2.16c0-.59.49-1.08,1.08-1.08h16.19c.6,0,1.08.48,1.08,1.08v2.16Zm0,10.8c0,.59-.48,1.07-1.08,1.07h-16.19c-.59,0-1.08-.48-1.08-1.07v-2.16c0-.6.49-1.08,1.08-1.08h16.19c.6,0,1.08.48,1.08,1.08v2.16Zm32.23.73h0s0,.03,0,.04c0,.61-.52,1.1-1.12,1.1-.24,0-.62-.07-.93-.38l-21.74-24.32c-.19-.2-.32-.47-.32-.77,0-.59.49-1.08,1.08-1.08h3.07c.36,0,.67.18.87.45l14.78,16.87v-16.24c0-.59.5-1.08,1.08-1.08h2.16c.6,0,1.08.48,1.08,1.08v24.32Zm51.46-8.89c-.34.91-.51,1.84-.51,2.77s.18,1.94.55,2.88c.37.94.88,1.78,1.53,2.52.66.74,1.43,1.34,2.34,1.8.9.46,1.9.69,2.99.69.62,0,1.25-.08,1.9-.23.64-.16,1.25-.39,1.82-.69.57-.3,1.08-.67,1.53-1.11.46-.44.8-.95,1.04-1.52l-2.43-1.4c-.17.42-.4.78-.69,1.07-.29.3-.6.54-.94.72-.34.18-.69.32-1.07.41-.38.09-.74.13-1.08.13-.66,0-1.27-.14-1.83-.43-.55-.29-1.03-.67-1.42-1.14-.4-.47-.7-1.02-.92-1.65-.22-.63-.32-1.28-.32-1.95,0-.61.09-1.21.28-1.82.19-.62.47-1.16.84-1.64.36-.48.83-.87,1.38-1.18.55-.3,1.21-.45,1.95-.45.34,0,.7.04,1.06.12.36.08.7.2,1.03.37.33.18.64.41.93.7.29.3.53.66.73,1.09l2.28-1.57c-.5-.99-1.27-1.8-2.3-2.42-1.03-.62-2.24-.93-3.65-.93-1.2,0-2.26.22-3.19.67-.93.44-1.72,1.03-2.37,1.75-.64.72-1.14,1.53-1.47,2.45m10.64-37.45v7.8c0,.64-.06,1.25-.18,1.85-.13.6-.33,1.13-.63,1.58-.29.46-.69.84-1.16,1.12-.49.29-1.08.43-1.78.43s-1.28-.14-1.75-.42c-.47-.28-.86-.65-1.15-1.11-.29-.46-.5-.99-.63-1.59-.12-.6-.19-1.22-.19-1.87v-7.8h-2.97v7.8c0,1,.12,1.95.35,2.87.24.92.63,1.73,1.15,2.42.53.7,1.23,1.26,2.08,1.69.86.42,1.89.63,3.12.63s2.19-.2,3.04-.6c.84-.4,1.54-.95,2.08-1.64.54-.69.93-1.5,1.19-2.42.25-.92.37-1.9.37-2.96v-7.8h-2.95Zm-7.91,65.34h-2.31v15.31h2.97v-9.81l7.87,9.81h2.42v-15.29h-2.98v10.03l-7.98-10.05Zm19.65-32.67l-5.85,15.31h3.07l1.4-3.82h5.35l1.42,3.82h3.07l-5.82-15.31h-2.63Zm-.88,9.4l2.2-6.01,2.11,6.01h-4.31Zm7.76-42.05v10.03l-7.98-10.05h-2.31v15.31h2.98v-9.81l7.87,9.81h2.42v-15.29h-2.98Zm-10.58,70.04c-.38.93-.57,1.91-.57,2.93s.18,1.93.54,2.87c.36.93.87,1.76,1.52,2.49.65.72,1.44,1.31,2.35,1.75.92.44,1.93.66,3.05.66s2.08-.21,2.99-.63c.92-.43,1.71-1,2.37-1.7.66-.71,1.18-1.53,1.56-2.46.37-.93.56-1.9.56-2.92,0-.96-.18-1.91-.54-2.84-.36-.94-.87-1.77-1.51-2.5-.65-.73-1.42-1.33-2.34-1.78-.91-.45-1.92-.68-3.03-.68s-2.08.21-3,.64c-.92.42-1.71.99-2.38,1.71-.67.72-1.19,1.55-1.57,2.48m2.45,2.93c0-.64.1-1.25.29-1.87.2-.61.48-1.16.85-1.64.37-.48.84-.87,1.4-1.16.56-.29,1.2-.44,1.92-.44s1.31.14,1.87.42c.55.28,1.02.66,1.4,1.13.38.48.67,1.02.88,1.64.21.62.31,1.26.31,1.92s-.1,1.25-.29,1.87c-.19.61-.48,1.16-.86,1.65-.38.49-.85.88-1.4,1.17-.56.3-1.19.44-1.91.44s-1.33-.15-1.89-.43c-.56-.29-1.02-.67-1.4-1.15-.38-.47-.67-1.02-.87-1.64-.2-.62-.3-1.26-.3-1.92m16.67-57.69h2.97v-15.31h-2.97v15.31Zm8.17,17.36h-10.44v15.31h10.63v-2.61h-7.66v-3.99h6.45v-2.41h-6.45v-3.69h7.46v-2.6Zm-1.7,32.67h-6.77v15.31h2.98v-5.13h2.93l3.13,5.13h3.34l-3.49-5.76c.85-.36,1.52-.95,2.02-1.76.5-.81.75-1.71.75-2.71,0-.62-.13-1.23-.37-1.84-.25-.61-.59-1.16-1.02-1.64-.43-.49-.94-.87-1.54-1.17-.59-.29-1.24-.44-1.95-.44m-.2,2.61c.26,0,.51.06.77.18.25.13.47.3.67.52.19.22.34.49.46.79.11.3.17.63.17.99s-.05.67-.15.97c-.1.31-.23.57-.41.79-.17.23-.38.4-.61.53-.24.13-.5.19-.77.19h-3.73v-4.96h3.6Zm.71-67.95l6.02,15.31h2.5l5.97-15.31h-3.13l-4.1,11.58-4.14-11.58h-3.13Zm9.04,32.67h-2.31v15.31h2.98v-9.81l7.87,9.81h2.42v-15.29h-2.98v10.03l-7.98-10.05Zm3.37,32.67h-3.19v15.31h2.97v-10.13l3.95,7.55h1.62l3.95-7.55v10.13h2.98v-15.31h-3.17l-4.57,8.71-4.53-8.71Zm9.08-52.64v-3.99h6.45v-2.41h-6.45v-3.69h7.46v-2.61h-10.44v15.31h10.63v-2.61h-7.65Zm12.9,52.64l-5.85,15.31h3.07l1.4-3.82h5.35l1.42,3.82h3.06l-5.82-15.31h-2.63Zm-.89,9.4l2.2-6.01,2.11,6.01h-4.31Zm6.25-64.56l3.13,5.13h3.35l-3.49-5.75c.85-.36,1.52-.95,2.01-1.76.5-.81.75-1.71.75-2.71,0-.62-.12-1.23-.37-1.84-.25-.61-.58-1.16-1.01-1.64-.43-.48-.95-.87-1.55-1.17-.59-.3-1.24-.44-1.95-.44h-6.77v15.31h2.98v-5.13h2.93Zm.8-2.61h-3.73v-4.96h3.6c.26,0,.51.06.77.18.25.13.47.3.67.52.19.22.34.49.47.79.11.3.17.63.17.99s-.05.67-.15.97c-.1.31-.23.57-.41.79-.17.22-.38.4-.62.53-.23.13-.49.19-.76.19m8.43,57.77h-2.31v15.31h2.98v-9.81l7.87,9.81h2.41v-15.29h-2.97v10.03l-7.98-10.05Zm10.83-50.89c.52-.36.94-.83,1.25-1.41.31-.59.46-1.29.46-2.11,0-.7-.11-1.29-.34-1.78-.23-.48-.55-.9-.98-1.24-.42-.34-.94-.63-1.55-.86-.61-.23-1.29-.45-2.03-.65-.58-.14-1.08-.28-1.52-.41-.44-.13-.8-.27-1.09-.43-.29-.16-.5-.35-.66-.55-.15-.21-.23-.47-.23-.79,0-.55.2-.97.6-1.27.4-.31,1.02-.46,1.83-.46.46,0,.91.06,1.36.18.44.11.86.25,1.24.42.38.17.71.33.97.5.27.17.45.31.55.41l1.31-2.41c-.68-.46-1.47-.86-2.37-1.19-.91-.34-1.89-.51-2.97-.51-.78,0-1.5.11-2.18.31-.68.21-1.27.52-1.79.92-.5.4-.9.91-1.19,1.51-.29.61-.43,1.3-.43,2.07,0,.59.09,1.1.27,1.52.18.43.45.8.8,1.12.37.32.81.6,1.36.84.54.24,1.17.45,1.91.66.6.17,1.15.33,1.63.47.5.14.91.3,1.26.48.34.17.61.38.79.6.19.23.29.51.29.84,0,1.05-.82,1.57-2.46,1.57-.59,0-1.16-.07-1.72-.22-.56-.14-1.07-.32-1.53-.52-.46-.21-.86-.42-1.2-.63-.34-.21-.57-.38-.7-.51l-1.31,2.56c.89.64,1.89,1.13,3.02,1.47,1.12.34,2.26.52,3.41.52.75,0,1.46-.09,2.14-.25.68-.17,1.28-.43,1.81-.79m6.33.86h2.97v-15.31h-2.97v15.31Zm4.7,50.03h-5.56v15.31h5.56c1.15,0,2.19-.18,3.11-.55.93-.37,1.72-.88,2.39-1.55.66-.67,1.17-1.48,1.52-2.41.35-.94.53-1.99.53-3.16,0-1.05-.16-2.04-.48-2.97-.31-.93-.79-1.74-1.42-2.43-.64-.69-1.42-1.23-2.37-1.64-.94-.41-2.03-.6-3.29-.6m-2.59,2.61h2.59c.71,0,1.36.12,1.93.37.57.25,1.05.59,1.44,1.03.39.45.68.99.89,1.6.2.62.3,1.3.3,2.03s-.1,1.39-.3,2.01c-.2.62-.49,1.15-.88,1.61-.38.45-.86.8-1.42,1.06-.57.26-1.22.39-1.96.39h-2.59v-10.09Zm12.99-52.64v-12.7h4.9v-2.61h-12.75v2.61h4.89v12.7h2.96Zm4.61,50.03h-2.97v15.31h2.97v-15.31Zm8.88-67.2l1.86.56,2.01-3.13h-2.7l-1.17,2.57Zm6.11,1.86h-10.44v15.31h10.63v-2.61h-7.66v-3.99h6.45v-2.41h-6.45v-3.69h7.47v-2.61Zm.79,65.34h-10.44v15.31h10.63v-2.61h-7.66v-3.99h6.45v-2.41h-6.45v-3.69h7.46v-2.61Z"/>
  </g>
</svg>
