<?xml version="1.0" encoding="UTF-8" standalone="no"?>
<svg
   xmlns:dc="http://purl.org/dc/elements/1.1/"
   xmlns:cc="http://creativecommons.org/ns#"
   xmlns:rdf="http://www.w3.org/1999/02/22-rdf-syntax-ns#"
   xmlns:svg="http://www.w3.org/2000/svg"
   xmlns="http://www.w3.org/2000/svg"
   xmlns:sodipodi="http://sodipodi.sourceforge.net/DTD/sodipodi-0.dtd"
   xmlns:inkscape="http://www.inkscape.org/namespaces/inkscape"
   version="1.1"
   id="svg2"
   xml:space="preserve"
   width="913"
   height="306.86667"
   viewBox="0 0 913 306.86667"
   sodipodi:docname="uni-bath.eps"><metadata
     id="metadata8"><rdf:RDF><cc:Work
         rdf:about=""><dc:format>image/svg+xml</dc:format><dc:type
           rdf:resource="http://purl.org/dc/dcmitype/StillImage" /></cc:Work></rdf:RDF></metadata><defs
     id="defs6" /><sodipodi:namedview
     pagecolor="#ffffff"
     bordercolor="#666666"
     borderopacity="1"
     objecttolerance="10"
     gridtolerance="10"
     guidetolerance="10"
     inkscape:pageopacity="0"
     inkscape:pageshadow="2"
     inkscape:window-width="640"
     inkscape:window-height="480"
     id="namedview4" /><g
     id="g10"
     inkscape:groupmode="layer"
     inkscape:label="ink_ext_XXXXXX"
     transform="matrix(1.3333333,0,0,-1.3333333,0,306.86667)"><g
       id="g12"
       transform="scale(0.1)"><path
         d="m 2624.38,1624.88 c 0,29.43 56.2,21.39 56.2,21.39 h 327.74 c 0,0 200.8,-7.32 279.59,-93.64 153.86,-168.55 72.36,-348.79 21.39,-394.63 -40.12,-36.13 -105.67,-54.85 -105.67,-54.85 0,0 97.65,-21.4 164.56,-81.6 75.4,-67.851 168.2,-308.71 69.56,-466.812 -90.95,-145.808 -211.29,-169.136 -361.21,-163.207 -135.11,5.36 -109.69,20.071 -250.16,17.399 -116.38,-2.211 -177.52,-6.899 -177.52,-6.899 0,0 -47.6,-4.582 -42.07,25.789 5.43,29.86 31.22,24.43 71.11,50.66 27.75,18.282 46.18,66.758 53.51,109.692 9.36,54.848 10.69,133.769 10.69,133.769 v 682.199 c 0,0 -1.33,12.04 -1.33,24.08 0,84.8 -68.22,157.85 -92.3,165.88 -22.75,8.03 -22.75,13.38 -24.09,30.78 z m 282.27,-101.68 -1.34,-355.84 c 0,0 2.19,-18.35 8.03,-28.08 8.02,-13.39 28.09,-17.41 28.09,-17.41 h 53.51 c 0,0 34.79,1.36 61.53,8.04 19.26,4.81 72.36,37.38 105.69,76.24 24.08,28.1 46.81,93.65 46.81,137.8 0,103 -37.46,144.47 -88.29,169.89 -68.56,34.28 -156.51,34.78 -156.51,34.78 h -32.1 c 0,0 -16.05,0 -21.41,-8.02 -4.74,-7.13 -4.01,-17.4 -4.01,-17.4 z m 0,-500.31 V 540.02 c 0,-12.04 18.73,-24.071 30.77,-29.411 24.1,-10.738 46.82,-13.39 46.82,-13.39 h 103 c 0,0 73.58,-4.02 132.44,34.781 69.73,45.961 89.62,144.469 86.95,220.719 -3.61,102.922 -41.68,159.703 -101.67,212.652 -68.22,60.189 -215.37,57.519 -215.37,57.519 h -82.94"
         style="fill:#ffffff;fill-opacity:1;fill-rule:nonzero;stroke:none"
         id="path14" /><path
         d="m 2624.38,1624.88 c 0,29.43 56.2,21.39 56.2,21.39 h 327.74 c 0,0 200.8,-7.32 279.59,-93.64 153.86,-168.55 72.36,-348.79 21.39,-394.63 -40.12,-36.13 -105.67,-54.85 -105.67,-54.85 0,0 97.65,-21.4 164.56,-81.6 75.4,-67.851 168.2,-308.71 69.56,-466.812 -90.95,-145.808 -211.29,-169.136 -361.21,-163.207 -135.11,5.36 -109.69,20.071 -250.16,17.399 -116.38,-2.211 -177.52,-6.899 -177.52,-6.899 0,0 -47.6,-4.582 -42.07,25.789 5.43,29.86 31.22,24.43 71.11,50.66 27.75,18.282 46.18,66.758 53.51,109.692 9.36,54.848 10.69,133.769 10.69,133.769 v 682.199 c 0,0 -1.33,12.04 -1.33,24.08 0,84.8 -68.22,157.85 -92.3,165.88 -22.75,8.03 -22.75,13.38 -24.09,30.78 z m 282.27,-101.68 -1.34,-355.84 c 0,0 2.19,-18.35 8.03,-28.08 8.02,-13.39 28.09,-17.41 28.09,-17.41 h 53.51 c 0,0 34.79,1.36 61.53,8.04 19.26,4.81 72.36,37.38 105.69,76.24 24.08,28.1 46.81,93.65 46.81,137.8 0,103 -37.46,144.47 -88.29,169.89 -68.56,34.28 -156.51,34.78 -156.51,34.78 h -32.1 c 0,0 -16.05,0 -21.41,-8.02 -4.74,-7.13 -4.01,-17.4 -4.01,-17.4 z m 0,-500.31 V 540.02 c 0,-12.04 18.73,-24.071 30.77,-29.411 24.1,-10.738 46.82,-13.39 46.82,-13.39 h 103 c 0,0 73.58,-4.02 132.44,34.781 69.73,45.961 89.62,144.469 86.95,220.719 -3.61,102.922 -41.68,159.703 -101.67,212.652 -68.22,60.189 -215.37,57.519 -215.37,57.519 z"
         style="fill:none;stroke:#ffffff;stroke-width:10;stroke-linecap:butt;stroke-linejoin:miter;stroke-miterlimit:4;stroke-dasharray:none;stroke-opacity:1"
         id="path16" /><path
         d="m 3435.09,420.809 c 7.81,39.582 32.88,7.863 85.59,64.222 38.8,41.438 65.56,82.93 90.99,136.43 12.88,27.16 32.09,80.269 32.09,80.269 l 295.65,805.26 c 0,0 4.01,28.1 4.01,48.17 0,18.72 -3.35,37.45 -3.35,37.45 0,0 14.2,1.89 23.41,4.02 8.7,2 28.76,7.35 28.76,7.35 l 130.44,42.14 363.85,-896.229 c 0,0 57.92,-159.071 120.4,-235.442 24.09,-29.418 52.17,-53.508 84.28,-54.859 52.13,-2.16 22.74,-56.168 -10.71,-56.168 -26.78,0 -125.71,2.547 -211.35,1.34 -94.98,-1.34 -270.23,-8.024 -270.23,-8.024 0,0 -37.41,-2.918 -29.42,25.41 10.38,36.891 38.79,29.422 60.19,33.454 54.17,10.128 124.41,36.097 136.46,90.949 8.43,38.429 -18.73,109.687 -18.73,109.687 L 4224.34,961.199 H 3868.51 L 3766.84,672.301 c 0,0 -13.38,-40.121 -16.05,-58.852 -2.68,-18.719 -2.68,-84.289 24.08,-116.398 26.74,-32.082 98.97,-41.449 133.76,-44.129 34.79,-2.692 8.03,-52.172 -18.73,-52.172 -26.75,0 -136.44,4.012 -216.7,6.68 -80.28,2.679 -214.05,-8.032 -214.05,-8.032 0,0 -24.06,-6.679 -24.06,21.411 z m 468.19,639.391 h 286.28 l -152.49,373.22 z"
         style="fill:#ffffff;fill-opacity:1;fill-rule:nonzero;stroke:none"
         id="path18" /><path
         d="m 3435.09,420.809 c 7.81,39.582 32.88,7.863 85.59,64.222 38.8,41.438 65.56,82.93 90.99,136.43 12.88,27.16 32.09,80.269 32.09,80.269 l 295.65,805.26 c 0,0 4.01,28.1 4.01,48.17 0,18.72 -3.35,37.45 -3.35,37.45 0,0 14.2,1.89 23.41,4.02 8.7,2 28.76,7.35 28.76,7.35 l 130.44,42.14 363.85,-896.229 c 0,0 57.92,-159.071 120.4,-235.442 24.09,-29.418 52.17,-53.508 84.28,-54.859 52.13,-2.16 22.74,-56.168 -10.71,-56.168 -26.78,0 -125.71,2.547 -211.35,1.34 -94.98,-1.34 -270.23,-8.024 -270.23,-8.024 0,0 -37.41,-2.918 -29.42,25.41 10.38,36.891 38.79,29.422 60.19,33.454 54.17,10.128 124.41,36.097 136.46,90.949 8.43,38.429 -18.73,109.687 -18.73,109.687 L 4224.34,961.199 H 3868.51 L 3766.84,672.301 c 0,0 -13.38,-40.121 -16.05,-58.852 -2.68,-18.719 -2.68,-84.289 24.08,-116.398 26.74,-32.082 98.97,-41.449 133.76,-44.129 34.79,-2.692 8.03,-52.172 -18.73,-52.172 -26.75,0 -136.44,4.012 -216.7,6.68 -80.28,2.679 -214.05,-8.032 -214.05,-8.032 0,0 -24.06,-6.679 -24.06,21.411 z m 468.19,639.391 h 286.28 l -152.49,373.22 z"
         style="fill:none;stroke:#ffffff;stroke-width:10;stroke-linecap:butt;stroke-linejoin:miter;stroke-miterlimit:4;stroke-dasharray:none;stroke-opacity:1"
         id="path20" /><path
         d="m 4635.03,1623.38 c 0,0 34.77,-2.68 78.92,-5.35 42.74,-2.6 111.03,-5.36 111.03,-5.36 l 482.94,1.35 c 0,0 78.91,0 157.84,6.68 61.36,5.2 155.19,12.04 155.19,12.04 0,0 -5.48,-67.55 -20.09,-149.82 -14.7,-82.94 -26.75,-133.78 -26.75,-133.78 0,0 -6.69,-29.43 -14.71,-34.78 -8.01,-5.35 -52.16,-21.41 -52.16,-21.41 0,0 10.05,56.14 8.02,85.62 -2.69,38.79 -13.98,101.37 -40.14,119.06 -45.47,30.76 -100.33,29.44 -143.13,32.11 -42.8,2.67 -113.71,-1.35 -132.44,-14.72 -18.74,-13.38 -16.05,-50.84 -16.05,-50.84 V 649.559 c 0,0 -2.69,-101.661 44.14,-136.438 41.81,-31.09 108.62,-50.012 108.62,-50.012 0,0 47.5,0 37.2,-34.281 -6.95,-23.058 -36.12,-26.746 -36.12,-26.746 0,0 -169.89,5.777 -252.82,6.68 -121.74,1.347 -222.5,-5.653 -259.95,-6.731 -47.5,-1.359 -35.8,57.41 6.8,62.43 22.71,2.68 88.95,7.687 132.73,55.34 45.49,49.5 52.18,149.828 52.18,149.828 v 758.431 c 0,0 -2.72,55.98 -20.07,74.92 -29.41,32.11 -105.67,29.43 -167.21,24.09 -77.87,-6.78 -124.06,-35.81 -144.47,-85.62 -21.41,-52.18 -30.77,-119.06 -46.83,-127.09 -17.02,-8.5 -57.52,-18.72 -57.52,-18.72 0,0 18.17,81.82 32.11,179.25 9.36,65.54 22.74,148.49 22.74,148.49"
         style="fill:#ffffff;fill-opacity:1;fill-rule:nonzero;stroke:none"
         id="path22" /><path
         d="m 4635.03,1623.38 c 0,0 34.77,-2.68 78.92,-5.35 42.74,-2.6 111.03,-5.36 111.03,-5.36 l 482.94,1.35 c 0,0 78.91,0 157.84,6.68 61.36,5.2 155.19,12.04 155.19,12.04 0,0 -5.48,-67.55 -20.09,-149.82 -14.7,-82.94 -26.75,-133.78 -26.75,-133.78 0,0 -6.69,-29.43 -14.71,-34.78 -8.01,-5.35 -52.16,-21.41 -52.16,-21.41 0,0 10.05,56.14 8.02,85.62 -2.69,38.79 -13.98,101.37 -40.14,119.06 -45.47,30.76 -100.33,29.44 -143.13,32.11 -42.8,2.67 -113.71,-1.35 -132.44,-14.72 -18.74,-13.38 -16.05,-50.84 -16.05,-50.84 V 649.559 c 0,0 -2.69,-101.661 44.14,-136.438 41.81,-31.09 108.62,-50.012 108.62,-50.012 0,0 47.5,0 37.2,-34.281 -6.95,-23.058 -36.12,-26.746 -36.12,-26.746 0,0 -169.89,5.777 -252.82,6.68 -121.74,1.347 -222.5,-5.653 -259.95,-6.731 -47.5,-1.359 -35.8,57.41 6.8,62.43 22.71,2.68 88.95,7.687 132.73,55.34 45.49,49.5 52.18,149.828 52.18,149.828 v 758.431 c 0,0 -2.72,55.98 -20.07,74.92 -29.41,32.11 -105.67,29.43 -167.21,24.09 -77.87,-6.78 -124.06,-35.81 -144.47,-85.62 -21.41,-52.18 -30.77,-119.06 -46.83,-127.09 -17.02,-8.5 -57.52,-18.72 -57.52,-18.72 0,0 18.17,81.82 32.11,179.25 9.36,65.54 22.74,148.49 22.74,148.49 z"
         style="fill:none;stroke:#ffffff;stroke-width:10;stroke-linecap:butt;stroke-linejoin:miter;stroke-miterlimit:4;stroke-dasharray:none;stroke-opacity:1"
         id="path24" /><path
         d="m 5726.62,1635.41 c -41.53,3.02 -51.05,-55.33 -26.61,-60.77 29.77,-6.61 54.71,-2.1 81.45,-32.86 32.28,-37.13 24.08,-117.72 24.08,-117.72 V 688.352 c 0,0 0.06,-82.493 -5.35,-123.063 -8.01,-60.211 -34.15,-82.008 -66.25,-95.391 -28.72,-11.976 -51.58,-13.578 -55.48,-43.75 -3.77,-29.168 28.34,-25.476 28.34,-25.476 0,0 77.47,5.43 179.16,6.789 101.78,1.359 206.76,-6.789 238.86,-6.789 32.12,0 51.59,51.578 4.09,58.367 -52.26,7.461 -102.64,16.602 -140.12,51.402 -29.12,27.047 -22.72,97.668 -22.72,97.668 v 436.031 h 583.27 V 608.109 c 0,0 -0.38,-97.73 -48.55,-113.781 -48.16,-16.058 -73.29,-17.648 -107.24,-23.078 -35.23,-5.648 -67.26,-70.578 -27.13,-70.578 40.14,0 164.31,9.519 263.32,9.519 57.56,0 150.73,-6.179 164.22,-6.8 29.85,-1.36 42.15,11.718 47.5,29.859 6.79,23.07 -21.72,28.512 -40.72,35.281 -22.28,7.957 -44.79,16.289 -63.79,46.149 -22.82,35.859 -16.4,113.468 -16.4,113.468 v 793.232 c 0,0 -4.02,76.25 21.39,113.71 27.96,41.18 38.8,36.12 62.9,44.14 31.71,10.57 38.79,57.52 10.71,54.84 -29.8,-2.84 -128.38,-8.9 -184.63,-8.01 -85.62,1.33 -177.78,6.21 -199.36,6.95 -39.34,1.36 -47.06,-59.71 -17.63,-59.71 32.21,0 84.84,-8.44 109.97,-44.91 26.77,-38.78 26.6,-109.68 25.44,-111.03 v -268.88 h -583.27 v 272.9 c 0,0 -2.69,92.3 38.78,120.4 29.73,20.12 57.55,21.4 92.31,26.75 34.79,5.35 54.86,66.88 17.4,64.21 -37.47,-2.67 -135.13,-2.67 -220.72,-2.67 -85.62,0 -135.11,1.33 -167.22,5.34"
         style="fill:#ffffff;fill-opacity:1;fill-rule:nonzero;stroke:none"
         id="path26" /><path
         d="m 5726.62,1635.41 c -41.53,3.02 -51.05,-55.33 -26.61,-60.77 29.77,-6.61 54.71,-2.1 81.45,-32.86 32.28,-37.13 24.08,-117.72 24.08,-117.72 V 688.352 c 0,0 0.06,-82.493 -5.35,-123.063 -8.01,-60.211 -34.15,-82.008 -66.25,-95.391 -28.72,-11.976 -51.58,-13.578 -55.48,-43.75 -3.77,-29.168 28.34,-25.476 28.34,-25.476 0,0 77.47,5.43 179.16,6.789 101.78,1.359 206.76,-6.789 238.86,-6.789 32.12,0 51.59,51.578 4.09,58.367 -52.26,7.461 -102.64,16.602 -140.12,51.402 -29.12,27.047 -22.72,97.668 -22.72,97.668 v 436.031 h 583.27 V 608.109 c 0,0 -0.38,-97.73 -48.55,-113.781 -48.16,-16.058 -73.29,-17.648 -107.24,-23.078 -35.23,-5.648 -67.26,-70.578 -27.13,-70.578 40.14,0 164.31,9.519 263.32,9.519 57.56,0 150.73,-6.179 164.22,-6.8 29.85,-1.36 42.15,11.718 47.5,29.859 6.79,23.07 -21.72,28.512 -40.72,35.281 -22.28,7.957 -44.79,16.289 -63.79,46.149 -22.82,35.859 -16.4,113.468 -16.4,113.468 v 793.232 c 0,0 -4.02,76.25 21.39,113.71 27.96,41.18 38.8,36.12 62.9,44.14 31.71,10.57 38.79,57.52 10.71,54.84 -29.8,-2.84 -128.38,-8.9 -184.63,-8.01 -85.62,1.33 -177.78,6.21 -199.36,6.95 -39.34,1.36 -47.06,-59.71 -17.63,-59.71 32.21,0 84.84,-8.44 109.97,-44.91 26.77,-38.78 26.6,-109.68 25.44,-111.03 v -268.88 h -583.27 v 272.9 c 0,0 -2.69,92.3 38.78,120.4 29.73,20.12 57.55,21.4 92.31,26.75 34.79,5.35 54.86,66.88 17.4,64.21 -37.47,-2.67 -135.13,-2.67 -220.72,-2.67 -85.62,0 -135.11,1.33 -167.22,5.34 z"
         style="fill:none;stroke:#ffffff;stroke-width:10;stroke-linecap:butt;stroke-linejoin:miter;stroke-miterlimit:4;stroke-dasharray:none;stroke-opacity:1"
         id="path28" /><path
         d="m 2673.94,2181.5 v -23.07 l 29.66,-2.36 6.59,-6.58 v -162.92 c 0,-36.26 2.36,-64.04 20.71,-88.06 19.32,-24.49 54.16,-38.6 100.77,-38.6 88.52,0 124.31,38.13 124.31,124.29 v 163.4 l 6.59,8.01 28.73,2.82 v 23.07 h -106.89 v -23.07 l 30.14,-2.82 7.07,-8.01 v -158.68 c 0,-62.63 -19.32,-91.83 -71.59,-91.83 -56.5,0 -76.74,26.85 -76.74,87.59 v 164.81 l 6.59,6.58 29.19,2.36 v 23.07 h -135.13"
         style="fill:#ffffff;fill-opacity:1;fill-rule:evenodd;stroke:none"
         id="path30" /><path
         d="m 3065.31,1865.55 h 107.36 v 22.61 l -29.2,3.76 -7.54,8.47 v 218.01 l 162.93,-252.85 h 52.75 v 281.11 l 8.02,8.95 27.78,3.77 v 22.12 h -107.39 v -22.12 l 28.73,-3.77 8.48,-8.95 v -201.53 l -144.1,223.66 v 12.71 h -108.3 v -23.07 l 30.15,-2.36 6.59,-6.58 v -249.1 l -8.47,-8.47 -27.79,-3.76 v -22.61"
         style="fill:#ffffff;fill-opacity:1;fill-rule:evenodd;stroke:none"
         id="path32" /><path
         d="m 3465.88,1865.55 h 140.8 v 23.08 l -31.55,2.35 -7.54,7.53 v 250.98 l 7.54,6.58 31.55,2.36 v 23.07 h -140.8 v -23.07 l 31.08,-2.36 7.53,-6.58 v -250.98 l -7.53,-7.53 -31.08,-2.35 v -23.08"
         style="fill:#ffffff;fill-opacity:1;fill-rule:evenodd;stroke:none"
         id="path34" /><path
         d="m 3664.84,2181.5 v -23.07 l 31.1,-5.66 106.87,-288.16 h 47.57 l 104.52,287.71 30.6,6.11 v 23.07 h -103.11 v -23.07 l 28.25,-2.36 5.17,-7.06 -75.79,-214.71 -78.16,214.71 5.16,7.06 27.31,2.36 v 23.07 h -129.49"
         style="fill:#ffffff;fill-opacity:1;fill-rule:evenodd;stroke:none"
         id="path36" /><path
         d="m 4043.84,1865.55 h 252.84 v 84.29 h -32.01 l -8,-49.91 -6.12,-7.54 H 4141.3 v 122.42 h 61.21 l 6.58,-6.59 4.72,-33.9 h 27.78 v 109.24 h -27.78 l -4.72,-33.9 -6.58,-6.6 h -61.21 v 112.07 h 93.71 l 6.12,-6.12 7.05,-41.44 h 32.97 v 73.93 h -237.31 v -23.07 l 28.72,-2.36 7.53,-6.58 v -250.98 l -7.53,-7.53 -28.72,-2.35 v -23.08"
         style="fill:#ffffff;fill-opacity:1;fill-rule:evenodd;stroke:none"
         id="path38" /><path
         d="m 4382.04,2181.5 h 143.14 c 72.99,0 110.65,-28.25 110.65,-80.52 0,-43.32 -27.79,-70.62 -80.99,-80.52 22.59,-5.17 38.62,-14.12 49.44,-29.19 14.61,-20.71 18.37,-46.14 27.33,-69.69 9.88,-25.9 24.02,-32.95 55.56,-32.95 h 6.1 v -22.6 c -16.46,-2.36 -32.48,-3.78 -47.07,-3.78 -20.25,0 -37.67,5.66 -48.96,14.6 -24.49,18.83 -28.73,40.02 -36.26,62.62 -14.6,44.73 -26.85,64.98 -74.39,64.98 h -8.01 v -105.94 l 7.52,-7.53 28.72,-2.35 v -23.08 h -132.78 v 23.08 l 27.76,2.35 7.55,7.53 v 250.98 l -7.55,6.58 -27.76,2.36 z m 96.54,-26.84 v -122.89 c 6.11,-0.47 11.75,-0.47 16.94,-0.47 50.4,0 74.41,19.77 74.41,63.1 0,38.6 -24.01,60.26 -69.72,60.26 h -21.63"
         style="fill:#ffffff;fill-opacity:1;fill-rule:evenodd;stroke:none"
         id="path40" /><path
         d="m 4767.69,1875.91 c 29.19,-10.36 60.72,-15.54 90.86,-15.54 77.24,0 124.77,40.49 124.77,96.53 0,27.78 -15.05,53.21 -42.36,70.62 -27.79,17.9 -52.75,24.96 -67.35,33.92 -24.95,15.07 -38.12,29.19 -38.12,50.84 0,25.9 21.19,44.74 55.55,44.74 15.06,0 25.91,-2.36 34.37,-6.59 l 6.6,-6.6 8.01,-48.97 h 33.9 v 76.28 c -29.65,10.36 -59.32,16.01 -88.52,16.01 -67.34,0 -111.12,-40.49 -111.12,-92.75 0,-23.08 11.3,-46.15 32.95,-64.52 20.72,-17.42 42.84,-25.43 61.7,-34.84 33.42,-16.96 50.37,-33.9 50.37,-59.33 0,-25.91 -22.59,-44.73 -60.75,-44.73 -14.59,0 -28.25,2.36 -41.42,6.59 l -6.13,7.06 -7.54,56.51 h -35.77 v -85.23"
         style="fill:#ffffff;fill-opacity:1;fill-rule:evenodd;stroke:none"
         id="path42" /><path
         d="m 5077.81,1865.55 h 140.77 v 23.08 l -31.53,2.35 -7.53,7.53 v 250.98 l 7.53,6.58 31.53,2.36 v 23.07 h -140.77 v -23.07 l 31.07,-2.36 7.54,-6.58 v -250.98 l -7.54,-7.53 -31.07,-2.35 v -23.08"
         style="fill:#ffffff;fill-opacity:1;fill-rule:evenodd;stroke:none"
         id="path44" /><path
         d="m 5294.21,2181.5 v -83.34 h 32.48 l 7.53,50.38 7.53,6.12 h 56.5 v -256.15 l -8,-7.53 -30.6,-2.35 v -23.08 h 140.78 v 23.08 l -30.61,2.35 -7.98,7.53 v 256.15 h 56.5 l 7.04,-6.12 8.02,-50.38 h 32.49 v 83.34 h -271.68"
         style="fill:#ffffff;fill-opacity:1;fill-rule:evenodd;stroke:none"
         id="path46" /><path
         d="m 5621.82,2181.5 v -23.07 l 30.13,-4.71 90.4,-163.86 v -91.82 l -7.51,-6.59 -31.56,-2.35 v -23.55 h 141.25 v 23.55 l -32,2.35 -7.56,6.59 v 103.12 l 89.46,152.09 27.81,5.18 v 23.07 h -102.65 v -22.6 l 28.23,-5.18 3.78,-7.53 -67.33,-115.37 -64.52,119.61 4.24,5.64 26.36,2.36 v 23.07 h -128.53"
         style="fill:#ffffff;fill-opacity:1;fill-rule:evenodd;stroke:none"
         id="path48" /><path
         d="m 6126.67,2025.17 c 0,51.34 16.48,92.76 48.51,122.43 29.64,27.31 66.37,40.97 110.16,40.97 40.51,0 74.89,-12.25 103.61,-36.74 36.26,-31.06 56.03,-76.27 56.03,-129.49 0,-49.91 -17.4,-92.28 -50.39,-122.89 -28.72,-26.83 -66.38,-41.43 -105.94,-41.43 -97.47,0 -161.98,66.86 -161.98,167.15 z m 159.63,133.26 c -52.28,0 -89.48,-49.9 -89.48,-134.2 0,-86.63 38.15,-137.49 88.52,-137.49 51.83,0 89.01,50.86 89.01,134.2 0,87.11 -36.71,137.49 -88.05,137.49"
         style="fill:#ffffff;fill-opacity:1;fill-rule:evenodd;stroke:none"
         id="path50" /><path
         d="m 6531.89,1865.55 h 138.89 v 23.08 l -32.94,2.35 -8,7.53 v 109.71 h 63.08 l 6.6,-6.12 4.69,-34.37 H 6732 v 109.71 h -27.79 l -4.69,-34.38 -6.6,-6.11 h -63.08 v 117.25 h 90.87 l 6.12,-6.13 7.07,-45.67 h 32.48 v 79.1 H 6530 v -23.07 l 30.15,-2.36 7.53,-6.58 v -250.98 l -7.53,-7.53 -28.26,-2.35 v -23.08"
         style="fill:#ffffff;fill-opacity:1;fill-rule:evenodd;stroke:none"
         id="path52" /><path
         d="M 2625.8,62.6992 V 158.121 H 6821.59 V 62.6992 H 2625.8 v 0"
         style="fill:#ffffff;fill-opacity:1;fill-rule:nonzero;stroke:none"
         id="path54" /><path
         d="m 1523.91,782.602 c -10.59,-11.782 -27.08,-25.903 -40.03,-34.141 -12.96,-8.262 -16.5,-29.461 -17.67,-47.109 -1.17,-17.68 27.09,-32.973 35.33,-30.633 8.25,2.371 5.88,18.851 2.35,34.16 -3.53,15.301 7.07,28.262 20.02,30.609 12.96,2.364 11.77,-14.117 21.2,-43.578 9.42,-29.43 34.15,-43.551 47.11,-44.719 12.94,-1.191 26.76,2.2 54.25,-4.421 21.78,-5.25 41.13,-10.891 38.76,-25.04 -2.35,-14.121 9.43,-34.14 17.67,-31.789 8.24,2.36 21.2,21.188 18.84,30.618 -2.36,9.421 -34.14,42.41 -62.4,55.351 -28.27,12.949 -42.4,14.129 -60.06,37.68 -17.67,23.551 -8.24,63.57 -5.9,94.199 2.36,30.609 -9.42,40.383 -25.9,38.012 -16.48,-2.34 -26.74,-9.199 -25.27,-26.84 1.18,-14.121 -7.7,-20.582 -18.3,-32.359"
         style="fill:#ffffff;fill-opacity:1;fill-rule:evenodd;stroke:none"
         id="path56" /><path
         d="m 1339.8,671.559 c -25.99,5.652 -21.48,-6.789 -20.35,-14.7 1.14,-7.91 16.96,-21.488 20.35,-26 3.4,-4.531 -7.53,-37.308 20.73,-26 7.42,2.969 12.05,-6.769 18.85,-16.949 6.77,-10.191 4.52,-22.621 3.38,-30.551 -1.12,-7.89 14.7,-12.418 24.88,-23.73 17.24,-19.16 50.87,-22.59 73.47,-22.59 22.62,0 55.39,1.133 80.27,14.68 19.17,10.453 52.79,19.34 62.98,23.832 10.16,4.527 32.73,-5.742 41.07,-1.563 11.29,5.641 5.61,19.571 -0.05,27.481 -5.65,7.91 -22.05,9.98 -29.97,8.851 -7.91,-1.14 -18.64,1.321 -32.21,5.84 -13.56,4.512 -20.35,11.309 -40.69,5.66 -20.35,-5.66 -68.96,-5.66 -91.56,3.399 -22.63,9.019 -35.08,34.98 -41.83,50.859 -6.97,16.391 -27.66,-1.738 -40.16,0.582 -9.58,1.801 -26.05,15.879 -49.16,20.899"
         style="fill:#ffffff;fill-opacity:1;fill-rule:evenodd;stroke:none"
         id="path58" /><path
         d="m 1467.96,402.66 c 0.65,-13.172 11.08,-32.051 15.8,-37.93 4.71,-5.878 22.12,-28.441 34.76,-31.601 8.23,-2.059 32.6,3.223 44.35,4.59 20.02,2.359 25,30.601 1.45,36.48 -16.03,4.02 -30.01,7.91 -34.75,30.02 -5,23.32 -3.63,32.383 -26.86,31.601 -13.18,-0.449 -36.33,-1.582 -34.75,-33.16"
         style="fill:#ffffff;fill-opacity:1;fill-rule:evenodd;stroke:none"
         id="path60" /><path
         d="m 1587.51,461.469 c 11.42,4.57 65.09,5.722 71.96,3.41 6.85,-2.277 20.18,-16.418 24.92,-27.481 1.62,-3.789 19.49,-31.679 12.64,-44.238 -6.85,-12.551 -14.22,-22.121 -12.64,-37.91 1.25,-12.629 15.76,-20.23 33.17,-12.629 17.42,7.598 7.9,18.938 29.86,29.738 8.46,4.161 5.71,50.262 5.71,55.961 0,5.719 -9.14,33.149 -14.85,40 -5.72,6.86 -19.41,14.84 -20.57,21.7 -1.14,6.859 -6.85,19.41 -20.55,20.57 -13.71,1.129 -68.92,-5.899 -90.19,-13.149 -21.25,-7.261 -30.9,-22.261 -34.31,-27.972 -3.44,-5.719 -1.16,-14.86 14.85,-8"
         style="fill:#ffffff;fill-opacity:1;fill-rule:evenodd;stroke:none"
         id="path62" /><path
         d="m 2005.43,836.531 c -3.53,-4.711 -11.62,-12.609 -7.07,-24.711 3.54,-9.441 21.21,-31.8 30.62,-44.769 9.42,-12.949 13.87,-64.531 5.53,-92.871 -4.9,-16.66 13.06,-22.211 14.81,-39.629 1.87,-18.832 -17.39,-19.473 -17.39,-26.52 0,-7.09 14.9,-34.902 -1.58,-53.73 -11.05,-12.641 -1.8,-51.781 7.9,-52.129 15.5,-0.57 37.98,21.066 48.26,32.629 9.42,10.59 46.38,74.73 39.5,90.058 -9.29,20.692 -24.33,19.161 -20.99,40.821 1.62,10.531 13.53,36.761 10,45 -3.54,8.23 -9.49,9.261 -21.27,26.941 -11.78,17.668 -16.48,38.859 -20.02,49.449 -3.53,10.61 -14.14,25.899 -17.66,27.09 -3.53,1.192 -5.89,3.531 -11.77,9.399 -5.9,5.902 -20.02,22.382 -38.87,12.972"
         style="fill:#ffffff;fill-opacity:1;fill-rule:evenodd;stroke:none"
         id="path64" /><path
         d="m 2139.37,858.52 c -17.4,11.718 -22.16,36.25 -26.87,43.3 -4.71,7.071 -35.55,53.258 -46.15,57.969 -11.45,5.102 -43.56,43.571 -77.72,61.231 -34.15,17.67 -63.59,12.96 -103.63,9.43 -40.04,-3.53 -108.34,-48.278 -120.1,-50.641 -11.77,-2.34 -24.74,15.312 -38.86,22.371 -14.15,7.08 -22.38,2.38 -37.7,7.08 -15.31,4.71 -18.83,10.59 -36.5,20 -17.66,9.43 -27.07,4.72 -41.21,-1.17 -14.14,-5.89 2.36,-17.66 18.83,-23.53 16.5,-5.9 38.87,-7.072 49.47,-20.04 10.59,-12.95 -5.9,-18.829 -17.66,-20.02 -11.78,-1.168 -23.56,7.07 -31.81,12.969 -8.23,5.871 -20.87,-14.09 -16.16,-23.5 4.71,-9.41 16.16,-10.699 25.6,-14.239 9.41,-3.531 44.73,5.329 52.98,0.61 8.24,-4.711 3.94,-20.391 0.41,-27.442 -3.54,-7.066 3.2,-24.128 12.63,-30.019 9.42,-5.879 -65.69,2.441 -68.39,-9.07 -5.83,-24.797 19.41,-25.539 35.33,-23.528 20.43,2.598 11.57,1.348 70.66,4.707 82.43,4.703 133.07,-31.797 156.62,-45.91 23.55,-14.117 46.41,-68.297 48.75,-107.168 2.36,-38.84 -18.83,-54.16 -22.36,-85.949 -3.54,-31.801 18.11,-111.641 22.82,-126.941 4.72,-15.309 29.51,-6.579 28.33,1.66 -1.17,8.25 1.92,14.711 10.17,25.32 8.24,10.578 12.19,11.73 5.14,28.238 -7.07,16.481 -12.84,34.742 -12.84,64.184 0,29.43 8.55,27.988 17.98,82.168 9.41,54.16 -19.1,110.25 -32.05,143.199 -12.95,32.973 -82.44,60.063 -95.38,68.301 -12.96,8.25 -25.91,21.199 -30.62,28.269 -4.71,7.051 -16.48,3.532 -27.09,12.95 -10.59,9.41 13.58,19.332 20.89,23.3 15.45,8.36 34.23,26.02 39.17,22.629 14.55,-10 -2.83,-27.379 5.06,-32.129 9.78,-5.839 27.17,13.602 34.77,7.911 9.42,-7.051 30.12,-20.719 6.31,-26.848 -22.52,-5.82 2.75,-18.344 13.32,-17.152 5.98,0.66 30.91,18.73 41.98,9.261 7.98,-6.859 -9.84,-25.453 7.9,-30.019 7.2,-1.883 16.66,-5.242 33.15,-6.41 16.49,-1.172 14.13,-16.481 20.02,-16.481 5.89,0 29.43,2.34 48.27,-4.73 18.85,-7.051 48.19,-35.153 57.72,-45.911 14.61,-16.5 32.42,3.668 38.31,11.911 5.89,8.238 -2.99,24.609 -8.88,23.418 -5.89,-1.18 -20.57,-10.321 -30.61,-3.539"
         style="fill:#ffffff;fill-opacity:1;fill-rule:evenodd;stroke:none"
         id="path66" /><path
         d="m 1618.87,1295.02 c -9.43,-11.77 -0.12,-40.05 8.12,-37.7 13.77,3.94 27,12.27 30.54,15.79 3.52,3.55 17.39,17.23 42.12,13.69 24.73,-3.51 61.72,-24.75 67.6,-28.29 5.88,-3.52 21.81,-14.62 20.87,-32.78 -0.93,-18.17 -20,-18.97 -33.83,-27.29 -10.74,-6.46 -18.84,-14.14 -31.79,-12.97 -12.96,1.19 -36.5,12.97 -49.47,8.25 -12.95,-4.71 -24.72,-16.49 -12.95,-25.91 11.78,-9.43 28.73,-4.9 41.69,-3.72 12.95,1.17 8.82,-27.93 -7.9,-30.02 -18.85,-2.37 -23.95,-28.71 -11.06,-26.87 24.72,3.54 28.24,-13.48 20,-20.53 -8.24,-7.08 -27.93,-11.1 -32.64,-15.82 -4.71,-4.7 8.76,-17.37 20.53,-17.37 11.78,0 32.76,12.98 37.92,15.8 15.23,8.33 27.59,5.12 40.98,-6.29 11.15,-9.51 36.49,18.85 64.77,23.56 28.27,4.71 50.47,13.51 58.98,12.46 12.64,-1.58 12.93,-27.15 20,-28.34 7.06,-1.18 37.6,-0.61 55.26,-2.97 17.66,-2.36 45.51,-18.69 59.74,-13.69 20.85,7.3 2.68,25.47 0.32,32.54 -2.36,7.07 -2.36,15.31 -5.88,23.55 -3.54,8.24 -16.5,17.66 -17.67,29.44 -1.18,11.77 10.59,47.12 -20.02,56.54 -30.62,9.44 -45.2,7.83 -46.37,14.9 -1.17,7.07 1.62,23.99 -5.44,25.17 -7.06,1.18 -86.05,6.63 -95.67,9.58 -19.29,5.94 -49.17,52.83 -80.98,61.07 -31.79,8.24 -55.06,18.34 -81.25,3.53 -27.08,-15.31 -42.38,-16.5 -56.52,-15.31"
         style="fill:#ffffff;fill-opacity:1;fill-rule:evenodd;stroke:none"
         id="path68" /><path
         d="m 1319.45,1224.36 c 6.33,7.36 -12.44,14.98 -28.43,0 -16.85,-15.8 -4.2,-45.74 9.47,-51.28 13.98,-5.65 37.72,-13.62 62.15,-5 17.91,6.32 31.6,15.48 31.6,37.63 0,9.51 -13.69,16.23 -25.45,19.88 -12.11,3.78 -14.14,-4.71 -11.78,-9.41 2.36,-4.72 13.85,-11.19 1.17,-25.37 -12.4,-13.87 -35.4,-8.5 -43.56,0 -10.96,11.42 1.4,29.53 4.83,33.55"
         style="fill:#ffffff;fill-opacity:1;fill-rule:evenodd;stroke:none"
         id="path70" /><path
         d="m 911.895,1222.97 c -16.485,-16.48 -10.848,-34.07 2.097,-44.66 10.321,-8.45 52.832,-14.16 73.727,-6.33 16.851,6.33 30.161,28.61 28.981,41.58 -0.86,9.37 -8.24,17.66 -20.016,22.36 -11.778,4.73 -14.133,-9.41 -9.418,-18.83 4.711,-9.43 9.418,-30.65 -21.203,-33 -30.618,-2.37 -29.192,21.94 -24.723,35.35 7.062,21.21 -4.715,23.55 -29.445,3.53"
         style="fill:#ffffff;fill-opacity:1;fill-rule:evenodd;stroke:none"
         id="path72" /><path
         d="m 1201.25,837.781 c -16.13,14.528 -8.24,64.778 -29.43,65.957 -9.69,0.524 -23.56,-9.437 -30.61,-14.148 -7.07,-4.699 -14.14,2.371 -35.33,0 -21.19,-2.36 -9.46,-23.301 -3.54,-38.86 9.44,-24.718 34.14,-12.949 41.21,-15.308 7.08,-2.352 8.25,-10.594 17.66,-10.594 9.42,0 16.5,4.711 28.27,-9.418 15.9,-19.082 35.32,1.192 11.77,22.371"
         style="fill:#ffffff;fill-opacity:1;fill-rule:evenodd;stroke:none"
         id="path74" /><path
         d="m 805.52,1306.82 c -24.735,-20.02 -36.543,-29.1 -32.368,-50.02 4.707,-23.54 40.039,-30.61 51.813,-30.61 11.777,0 27.086,25.9 34.156,41.22 6.317,13.69 15.715,30.99 7.481,39.41 -10.368,10.59 -39.883,21.19 -61.082,0"
         style="fill:#ffffff;fill-opacity:1;fill-rule:evenodd;stroke:none"
         id="path76" /><path
         d="m 912.945,1151.98 c -15.8,2.09 -20.379,4.51 -36.867,11.58 -16.484,7.06 -20.75,-14.25 -13.691,-18.97 7.07,-4.7 29.492,-10.52 63.195,-13.69 20.039,-1.88 50.453,-0.56 60.031,1.05 9.289,1.56 26.317,6.33 27.547,-13.82 1.45,-23.63 -24.16,-14.16 -33.863,-14.3 -12.488,-0.17 -44.356,1.55 -63.192,3.9 -18.843,2.35 -65.3,12.65 -82.144,24.22 -11.328,7.78 -20.977,22.69 -37.469,27.4 -16.48,4.72 -30.258,-25.72 -17.308,-31.61 7.742,-3.52 23.179,-12.64 9.484,-26.33 -18.988,-18.98 -6.012,-47.71 1.055,-54.77 7.07,-7.06 28.738,-38.22 35.808,-45.29 7.063,-7.049 25.133,-3.338 32.196,-8.041 3.761,-2.5 25.964,-18.129 35.332,-30.61 7.058,-9.429 21.187,4.711 32.972,14.121 11.774,9.418 23.547,-9.41 18.836,-18.851 -4.711,-9.41 -7.062,-9.41 -16.484,-30.598 -9.422,-21.211 -30.617,-18.851 -44.746,-18.851 -14.129,0 -11.778,-14.122 -11.778,-14.122 0,0 9.414,-14.136 9.414,-21.187 0,-7.07 -16.476,-14.16 -32.968,-14.16 -16.485,0 -32.973,4.719 -44.746,7.09 -11.778,2.339 -8.246,-14.141 2.355,-23.563 9.484,-8.43 21.195,-31.777 42.391,-37.68 8.183,-2.257 26.711,0.692 32.968,4.731 13.235,8.492 35.352,19.543 35.332,32.949 -0.019,13.422 -9.242,25.473 11.083,37.66 15.792,9.473 27.777,-9.406 37.199,-16.468 9.422,-7.071 27.09,1.179 41.223,12.949 14.12,11.781 11.55,44.609 8.24,60.062 -3.54,16.489 -18.901,12.5 -31.799,23.559 -16.488,14.121 8.25,32.969 8.25,32.969 0,0 43.569,24.731 41.209,47.111 -2.46,23.39 3.11,49.41 9.42,62.4 4.16,8.53 -15.06,10.04 -2.11,31.25 11.05,18.08 39.79,35.88 42.14,54.72 2.37,18.87 -12.51,26.96 -26.66,31.66 -14.13,4.72 -16.59,-15.75 -19.68,-33.72 -3.32,-19.14 -22.13,-29.5 -40.03,-33.71 -13.332,-3.13 -66.352,-3.15 -82.145,-1.04"
         style="fill:#ffffff;fill-opacity:1;fill-rule:evenodd;stroke:none"
         id="path78" /><path
         d="m 1066.71,544.82 c -9.48,-9.371 -20.26,-12.609 -30.02,-17.379 -11.58,-5.64 -3.36,-41.269 12.65,-39.492 9.35,1.031 26.84,-9.469 34.74,-22.109 7.6,-12.149 20.97,-28.07 26.86,-31.602 13.03,-7.808 25.27,-18.968 50.54,-26.859 27.77,-8.668 86.8,-8.551 106.82,-7.379 20.03,1.172 4.49,18.852 -7.28,20.02 -11.78,1.171 -76.25,11.429 -91.57,18.48 -15.29,7.07 -27.45,22.91 -30.97,31.148 -3.54,8.262 -20.5,10.141 -27.57,21.911 -7.06,11.781 -13.41,35.57 -15.77,48.519 -2.36,12.953 -20.95,12.152 -28.43,4.742"
         style="fill:#ffffff;fill-opacity:1;fill-rule:evenodd;stroke:none"
         id="path80" /><path
         d="m 1630.02,812.34 c -13.83,-23.039 -3.56,-22.09 14.86,-36.66 18.56,-14.66 12.69,-36.871 13.84,-53 1.14,-16.141 22.08,-21.739 31.3,-28.66 9.22,-6.911 16.8,-20.911 28.33,-26.68 11.53,-5.738 23.82,-4.469 36.49,-18.301 12.68,-13.82 7.84,-31.617 16.84,-48.359 11.66,-21.66 30,-15 34.53,-31.25 2.66,-9.551 -4.61,-23.039 -5.76,-32.258 -1.15,-9.223 8.3,-49.442 8.3,-79.402 0,-29.981 -23.28,-56.579 -25.59,-73.86 -2.3,-17.289 4.61,-14.98 12.68,-31.101 8.07,-16.149 -36.21,-19.7 -40.82,-25.469 -4.61,-5.762 -29.17,-31.66 -35,-35 -11.06,-6.301 -41.09,-43.469 -42.67,-59.27 -3.16,-31.59 -135.86,-36.332 -131.12,-110.59 1.47,-22.8081 -33.17,-15.8 -78.98,-36.3316 -31.06,-13.9179 -95.75,15.8006 -115.34,15.8006 -19.58,0 -167.45,-12.6287 -186.4,-11.0506 -15.1,1.25 -39.32,24.7306 -47.66,29.2816 -18.34,10 -31.21,19.25 -61.17,25 -29.96,5.761 -45.37,10.41 -47.68,17.32 -2.3,6.91 6.77,18.609 9.08,27.832 2.3,9.219 -4.62,21.898 -10.37,27.656 -5.77,5.762 -8.98,35.313 -8.98,45.942 0,16.699 14.71,44.039 23.74,62.89 9.03,18.84 19.68,20.168 28.89,28.239 9.22,8.07 39.13,15.511 35.94,28.242 -2.3,9.238 -12.66,22.34 -25.34,30.41 -13.8,8.789 -37.7,-2.992 -58.45,-11.051 -20.737,-8.07 -52.26,-37.031 -56.865,-47.41 -4.61,-10.371 -13.215,-37.711 -21.629,-56.23 -8.332,-18.34 0,-46.68 11.664,-80 3.59,-10.25 6.496,-28.688 9.953,-42.52 3.457,-13.801 17.285,-23.039 26.504,-32.262 9.218,-9.199 9.058,-22.148 10.215,-30.218 1.152,-8.059 -8.704,-51.6997 1.664,-66.6802 10.371,-14.9804 51.274,-15.8906 46.664,-6.6601 -3.75,7.4805 6.35,61.1793 31.67,61.1793 51.67,0 52.88,-51.6285 75,-59.5192 4.85,-1.7304 215.83,-2.9101 215.83,-2.9101 0,0 267.36,89.0703 310,107.5003 42.64,18.441 89.49,56.082 83.75,65 -18.96,29.5 -2.13,62.351 7.09,70.41 12.64,11.058 65.13,41.551 71.66,46.68 22.11,17.371 38.34,38.32 42.42,49.14 4.08,10.84 4.79,29.559 8.99,38.52 3.77,8.09 38.11,7.871 34.65,-8.239 -3.15,-14.711 18.96,-25.3 30.01,-33.191 8.91,-6.359 29.72,23.828 33.18,28.441 14.22,18.95 -3.33,48.278 -41.36,42.52 -28.57,-4.32 -14.26,30.449 -15.41,38.519 -1.15,8.059 -24.67,11.11 -26.96,28.239 -0.78,5.82 -8.49,22.73 -15.4,30.801 -6.92,8.07 -23.11,15.179 -23.11,24.39 0,8.149 11.82,10.43 14.12,23.11 2.31,12.679 -4.12,30.98 -6.42,43.628 -2.3,12.723 -10.1,63.582 2.57,69.34 12.68,5.762 15.93,-10.429 20.54,-23.109 4.6,-12.668 23.37,-15.758 25.68,-7.688 2.3,8.059 2.05,31.618 -2.57,50.059 -4.61,18.43 -40.32,39.512 -50.7,42.969 -10.38,3.453 -12.67,5.761 -23.04,12.672 -10.37,6.91 -79.76,4.449 -105.52,9.879 -31.67,6.66 -57.33,19.769 -70,26.66 -12.68,6.929 -12.2,8.199 -28.33,-3.34"
         style="fill:#ffffff;fill-opacity:1;fill-rule:evenodd;stroke:none"
         id="path82" /><path
         d="m 856.594,252.559 c -24.422,10.531 -59.289,-10.899 -63.918,-21.079 -7.895,-17.359 12.64,-36.32 36.34,-44.21 18.488,-6.18 45.808,-7.911 55.297,9.468 10.367,19.024 -10.793,48.532 -27.719,55.821"
         style="fill:#ffffff;fill-opacity:1;fill-rule:evenodd;stroke:none"
         id="path84" /><path
         d="m 525.078,287.73 c 0.621,24.321 -31.676,38.68 -46.773,46.43 -52.133,26.879 -27.715,49.039 -47.391,64.789 -17.668,14.141 -30.851,-47.519 -26.144,-55.769 4.71,-8.239 4.761,-33.02 17.714,-40.071 12.954,-7.07 32.668,-27.949 42.133,-35.808 7.184,-5.973 47.946,-29.66 52.653,-37.91 0,0 7.187,34.007 7.808,58.339"
         style="fill:#ffffff;fill-opacity:1;fill-rule:evenodd;stroke:none"
         id="path86" /><path
         d="m 590.375,197.461 c 7.52,-4.512 67.336,-39.102 83.82,-49.691 16.485,-10.598 135.641,-76.1294 174.504,-83.1997 38.856,-7.0703 14.778,47.2697 -7.051,62.6597 -25.671,17.969 -55.554,24.219 -97.949,44.219 -42.386,20.02 -89.347,38.531 -99.844,42.34 -34.75,12.641 -53.48,-16.328 -53.48,-16.328"
         style="fill:#ffffff;fill-opacity:1;fill-rule:evenodd;stroke:none"
         id="path88" /><path
         d="m 319.477,510.078 c -3.539,-25.918 47.511,-14.238 66.351,-14.238 18.84,0 34.207,-19.16 56.578,-30.918 22.375,-11.793 31.793,-22.383 42.395,-36.524 10.597,-14.136 79.254,-57.988 91.847,-63.597 31.797,-14.121 27.086,3.558 9.426,24.75 -21.351,25.609 -72.777,102.418 -88.086,114.199 -9.925,7.641 -24.242,58.48 -48.972,63.18 -24.723,4.73 -12.637,-6.301 -48.973,6.332 -36.332,12.636 -54.832,11.816 -55.293,-1.582 -0.504,-14.75 13.414,-24.282 2.27,-29.039 -13.329,-5.731 -21.661,-11.371 -27.543,-32.563"
         style="fill:#ffffff;fill-opacity:1;fill-rule:evenodd;stroke:none"
         id="path90" /><path
         d="m 291.035,554.301 c 21.199,22.379 29.492,64.551 48.336,93.98 18.844,29.449 28.262,38.867 41.215,45.938 12.953,7.07 16.484,15.312 10.598,28.261 -4.489,9.879 0,12.95 21.195,24.731 21.195,11.769 34.309,15.758 41.375,39.309 4.719,15.71 38.812,75.242 25.277,80.562 -13.539,5.328 -27.629,15.09 -25.277,26.848 2.355,11.781 22.215,12.23 32.816,18.129 10.598,5.871 7.063,12.961 -3.535,20.023 -10.597,7.047 -38.859,8.238 -52.984,5.867 -14.133,-2.34 -21.199,-20.019 -34.156,-31.789 -12.95,-11.762 -22.844,-3.359 -38.86,-24.73 -14.137,-18.828 -21.199,-69.461 -28.262,-87.11 -7.07,-17.66 -10.597,-12.949 -17.668,-24.73 -7.062,-11.781 14.133,-9.41 20.024,-22.379 5.887,-12.949 5.918,-22.82 -5.891,-23.563 -38.937,-2.418 -15.519,-18.339 -17.875,-37.179 -2.129,-17 -39.011,-89.649 -44.765,-106.899 -4.703,-14.121 11.957,-28.808 28.437,-25.269"
         style="fill:#ffffff;fill-opacity:1;fill-rule:evenodd;stroke:none"
         id="path92" /><path
         d="m 201.316,690.68 c 11.09,-5.891 -1.179,-36.789 12.313,-49.489 9.828,-9.261 26.715,14.219 30.016,36.329 4.097,27.441 -9.856,71.601 3.695,91.621 13.543,20.019 25.211,32.519 26.433,53.699 1.239,21.211 16.586,37.609 26.446,50.558 9.855,12.954 36.386,34.442 41.312,47.391 4.922,12.973 -4.23,23.672 -21.48,18.961 -17.246,-4.711 -51.235,-33.18 -70.766,-47.91 -9.953,-7.539 -56.726,-63.781 -61.437,-72.129 -11.575,-20.551 13.363,-27.461 -1.27,-53.211 -5.426,-9.531 -3.449,-23.371 -8.433,-31.602 -13.543,-22.378 1.003,-40.699 23.171,-44.218"
         style="fill:#ffffff;fill-opacity:1;fill-rule:evenodd;stroke:none"
         id="path94" /><path
         d="m 419.766,967.391 c 9.047,5.66 12.105,8.687 25.672,6.398 13.566,-2.238 82.023,-19.609 128.375,-12.809 46.347,6.782 97.355,30.231 105.269,44.92 7.906,14.71 22.555,29.18 29.336,37.09 6.785,7.91 4.121,33.58 -4.922,36.98 -9.047,3.39 -30.601,13.77 -41.902,2.46 -11.313,-11.3 -22.078,-11 -34.516,-9.87 -12.43,1.14 -40.379,-1.51 -69.953,-8.89 -23.625,-5.91 -84.727,-29.52 -105.266,-41.08 -20.218,-11.36 -39.433,-33.008 -46.214,-39.789 -6.79,-6.781 5.074,-21.063 14.121,-15.41"
         style="fill:#ffffff;fill-opacity:1;fill-rule:evenodd;stroke:none"
         id="path96" /><path
         d="m 459.352,2029.25 -70.368,-59.45 c 0,0 46.145,16.27 54.571,-2.69 12.461,-28.03 33.695,-42.12 56.867,-31.06 20.305,9.69 38.113,3.73 48.449,-17.38 11.836,-24.2 23.055,-35.47 20.453,-58.83 -4.711,-42.4 -41.211,-170.75 -16.48,-261.43 12.469,-45.74 7.058,-65.95 57.699,-128.35 26.762,-32.99 81.254,-76.55 88.312,-85.98 7.075,-9.41 9.426,-25.9 18.848,-21.18 9.422,4.71 -1.176,44.74 -20.015,65.94 -18.844,21.2 -107.165,80.07 -116.59,162.5 -9.414,82.44 2.359,134.25 11.785,155.45 9.414,21.19 11.476,61.15 11.476,72.93 0,0 -0.175,26.42 15.797,23.17 12.239,-2.5 16.856,-46.7 16.856,-63.19 0,-16.48 2.968,-47.05 2.968,-47.05 0,0 14.129,-32.97 14.129,-42.38 0,-9.43 -14.129,-42.4 -9.421,-56.54 4.71,-14.12 23.554,-25.9 30.621,-37.68 7.062,-11.77 -4.711,-30.62 4.711,-42.39 9.421,-11.77 37.683,-54.16 54.168,-58.87 16.488,-4.72 67.179,-22.56 76.597,-13.14 9.418,9.42 30.582,36.39 -4.746,45.81 -35.324,9.43 -90.691,30.92 -104.824,80.37 -14.129,49.46 -10.098,151.86 -73.688,281.4 -63.586,129.53 -105.007,115.73 -127.105,124.23 -20.535,7.9 -41.07,15.79 -41.07,15.79"
         style="fill:#ffffff;fill-opacity:1;fill-rule:evenodd;stroke:none"
         id="path98" /><path
         d="m 1274.73,1934.08 c -43.66,-123.24 -48.79,-127.08 -46.22,-165.6 2.56,-38.51 26.96,-41.08 42.36,-17.97 15.41,23.11 22.41,41.58 42.36,43.65 13.64,1.41 16.2,-19.14 13.64,-44.81 -2.57,-25.67 17.17,-7.83 30.02,10.15 12.83,17.96 18.89,75.36 21.46,106.18 2.57,30.8 8.32,54.56 9.9,79.85 1.58,25.27 6.52,56.87 -6.32,56.87 -12.83,0 -23.69,-4.74 -23.69,6.31 0,17.23 43.77,55.07 58.45,66.36 20.54,15.79 4.79,47.84 -20.54,33.17 -30.02,-17.38 -77.78,-50.92 -121.42,-174.16"
         style="fill:#ffffff;fill-opacity:1;fill-rule:evenodd;stroke:none"
         id="path100" /><path
         d="m 95.1484,886.039 c -0.5312,-11.051 34.6606,-24.18 25.2776,-39.488 -19.684,-32.141 29.293,-44.77 19.808,-63.723 -9.476,-18.937 -15.722,-40.937 -26.855,-34.758 -14.2188,7.91 -54.5665,141.129 -60.8829,172.719 -3.2188,16.09 -14.2188,113.751 -12.6445,135.851 1.582,22.12 26.0703,29.71 28.4375,31.61 7.9023,6.31 74.5309,33.66 83.7309,37.91 15.308,7.07 60.058,47.46 64.773,56.88 4.711,9.43 6.648,33.76 7.895,53.74 1.05,16.86 4.214,34.76 -6.321,37.91 -12.406,3.73 -26.082,-4.01 -28.433,-15.79 -2.36,-11.77 -9.661,-38.62 -20.536,-36.34 -20.011,4.22 -30.019,-33.51 -30.019,-44.25 0,-23.18 -43.6993,-26.88 -42.6524,-7.91 0.625,11.28 20.5394,75.86 21.0664,99.57 0.391,17.57 -18.4727,33.61 -9.48,51.59 7.199,14.4 10.714,68.37 12.964,77.37 9.481,17.37 52.129,30.01 31.594,-25.28 -6.074,-16.36 -14.336,-37.42 3.887,-44.71 10.531,-4.22 17.289,-3.8 34.027,32.07 11.063,23.7 52.141,12.64 33.18,-26.85 -16.305,-33.98 21.445,-29.08 29.687,-32.61 8.243,-3.54 9.727,-19.77 8.426,-30.54 -1.836,-15.17 15.563,-18.5 28.434,-15.79 12.871,2.71 67.215,31.54 99.722,25.45 37.688,-7.07 53.618,-12.83 65.403,-17.56 11.769,-4.71 30.613,-4.71 25.902,11.78 -4.715,16.5 13.047,46.49 15.399,58.25 2.347,11.79 25.242,24.15 21.066,36.87 -4.188,12.73 -44.707,28.53 -54.133,29.71 -10.769,1.35 -20.019,-35.33 -22.367,-56.52 -2.363,-21.2 -35.172,-21.43 -42.184,-2.73 -9.48,25.28 -23.699,26.86 -30.019,60.04 -4.34,22.78 -25.274,23.69 -41.074,36.33 -28.129,22.51 -5.153,39.48 -6.317,48.97 -3.379,27.55 -31.805,31.07 -41.387,19.89 -9.953,-11.6 -26.281,1.64 -36.878,2.8 -15.7,1.75 -54.985,-4.64 -71.813,-6.89 -23.695,-3.16 -26.769,-14.81 -30.152,-24.27 -7.895,-22.11 -53.3323,8.34 -53.3323,8.34 0,0 58.8593,124.84 70.8473,159.69 10.293,29.95 60.36,104.8 63.188,112.17 7.898,20.53 36.34,-11.06 9.48,-48.98 -16.984,-23.98 -64.711,-104.12 -78.992,-146.92 -8.691,-26.05 34.414,-22.81 42.656,-6.32 5.368,10.75 45.934,91.83 64.77,124.81 18.844,32.97 62.851,109.12 71.09,127.96 8.121,18.56 26.914,36.45 36.34,55.29 9.414,18.84 40.187,20.46 28.429,-18.96 -11.941,-40.06 -69.597,-131.64 -83.73,-151.65 -13.442,-19.06 -56.094,-94.08 -58.442,-105.85 -2.359,-11.78 -5.492,-29.24 1.575,-31.6 7.07,-2.35 39.546,9.56 48.972,23.7 9.418,14.13 43.946,105.16 55.719,121.64 11.777,16.49 37.578,70.41 51.703,86.89 14.137,16.49 46.684,-6.23 31.602,-31.6 -34.762,-58.45 -70.817,-130.75 -85.313,-150.07 -16.933,-22.58 1.617,-55.27 28.438,-28.44 23.554,23.55 34.043,51.47 45.816,72.67 11.774,21.19 29.266,49.84 36.332,61.61 7.067,11.78 35.977,1.51 31.266,-17.33 -4.711,-18.84 -28.196,-60.17 -42.324,-74.29 -14.133,-14.14 -22.235,-31.64 -29.29,-45.78 -7.07,-14.12 0,-26.32 14.747,-35.8 18.687,-12.02 27.996,-11.14 42.121,-25.28 14.132,-14.13 27.992,-30.84 42.132,-37.91 14.125,-7.07 34.137,-12.02 43.555,-30.87 9.418,-18.83 23.551,-52.98 48.281,-62.41 20.079,-7.64 25.911,-15.3 38.864,-31.79 18.515,-23.58 25.929,-29.23 42.39,-28.26 20.016,1.18 18.844,-23.56 22.375,-42.4 2.211,-11.8 -17.668,-47.09 -17.668,-65.94 0,-18.87 4.153,-71.86 -11.777,-80.12 -11.203,-5.8 -36.098,8.24 -45.961,-0.53 -9.476,-8.43 -32.73,-4.09 -38.969,5.27 -8.425,12.63 -25.277,13.7 -32.648,7.37 -12.641,-10.84 -28.852,-8.01 -37.914,1.04 -6.32,6.33 -23.172,1.07 -33.516,-3.42 -29.883,-12.97 -25.308,13.83 -25.308,13.83 0,0 8.289,23.4 18.89,23.4 8.492,0 21.145,-6.9 28.215,-4.56 6.699,2.25 15.566,22.07 25.41,29.77 9.989,7.81 22.934,10.64 16.852,26.34 -3.645,9.4 5.582,17.64 12.64,20.01 13.594,4.53 30.543,3.16 36.86,10.52 4.844,5.66 3.844,32.21 -12.641,46.35 -16.488,14.13 -60.652,1.8 -65.293,-31.6 -5.887,-42.39 -45.215,-59.48 -70.281,-66 -31.801,-8.23 -42.469,-0.02 -68.375,14.1 -25.902,14.14 -80.664,14.63 -102.367,6.45 -19.117,-7.21 -30.696,-36.72 -13.844,-36.72 16.844,0 57.207,-7.38 75.297,-7.38 25.906,0 47.391,-9.47 57.195,-29.92 11.211,-23.39 10.485,-23.32 -22.371,-18.84 -68.004,9.27 -134.582,-3.84 -172.262,-14.44 -13.652,-3.84 -60.875,-45.45 -67.929,-48.99 -5.086,-2.54 -39.289,-21.35 -63.1917,-39.47 -23.9024,-18.15 -20.0313,-38.749 -15.7969,-61.6 1.0703,-5.801 7.7578,-44.321 9.4766,-50.571 0,0 21.066,23.18 26.855,30.02 5.793,6.84 48.977,31.601 71.09,58.451 20.086,24.39 78.559,57.98 96.586,66.45 51.379,24.15 109.852,21.73 123.641,16.64 13.781,-5.08 41.859,-25.19 24.312,-42.99 -17.539,-17.77 -47.617,-40.64 -60.144,-48.28 -12.535,-7.611 -25.238,1.72 -34.016,-7.17 -8.765,-8.898 -32.586,-29.371 -42.957,-28.879 -33.168,1.559 -74.769,-8.461 -86.887,-11.082 -22.117,-4.718 -63.187,-19.468 -78.984,-30.519 -15.801,-11.059 -29.4843,-29.5 -30.0156,-40.551"
         style="fill:#ffffff;fill-opacity:1;fill-rule:evenodd;stroke:none"
         id="path102" /><path
         d="m 1347.6,250.801 c -11.78,-1.192 -35.32,-2.36 -35.32,-2.36 0,0 -3.53,-4.711 -10.6,-10.609 -7.07,-5.883 -20.02,-9.41 -29.43,-10.582 -9.44,-1.18 -17.52,-3.66 -25.77,-9.551 -8.24,-5.879 -0.54,-12.84 7.7,-12.84 8.24,0 22.68,3.852 32.1,3.852 9.42,0 30.06,-2.461 35.95,-1.289 5.88,1.187 13.89,6.43 25.66,6.43 11.79,0 18.83,0.539 28.24,6.418 9.44,5.902 24.18,8.339 35.95,15.41 11.79,7.07 29.74,4.519 36.8,8.05 7.06,3.52 7.06,8.239 2.35,15.29 -4.71,7.07 -11.78,28.269 -14.13,36.531 -2.35,8.238 -12.96,10.578 -16.48,0 -3.54,-10.61 -32.98,-34.16 -50.64,-41.231 -17.67,-7.07 -10.6,-2.351 -22.38,-3.519 z m 275.17,98.129 c -2.34,17.48 31.61,12.89 31.61,4.742 0,-8.16 -3.5,-33.242 0,-37.91 3.49,-4.672 11.42,-13.59 12.59,-19.434 1.16,-5.84 -1.37,-6.289 -11.02,-10.59 -14.21,-6.328 -26.85,-4.738 -36.34,-14.218 -8.91,-8.918 -16.76,-25.329 -28.42,-31.149 -11.66,-5.84 -41.06,-15.551 -59.72,-21.391 -18.66,-5.82 -39.21,-18.55 -46.22,-24.39 -6.99,-5.82 -19.62,-2.442 -35.93,-1.27 -16.33,1.149 -31.31,0.328 -48.78,-9 -17.49,-9.32 -62.95,-11.179 -101.43,-7.699 -38.47,3.5 -88.36,-4.082 -111.68,-6.422 -23.32,-2.328 -48.9,-5.34 -62.9,5.133 -13.98,10.508 -8.04,23.598 1.29,28.238 9.32,4.668 24.85,4.219 29.52,7.719 4.66,3.5 45.17,25.883 58.27,31.801 6.02,2.711 33.48,15.5 45.82,18.961 8.76,2.437 24,13.277 37.98,15.629 14,2.32 25.21,6.5 30.73,12.031 3.86,3.859 5.01,13.078 -8.98,15.41 -13.98,2.34 -25.33,5.598 -34.65,10.27 -9.33,4.668 -22.77,12.007 -32.11,3.871 -9.31,-8.192 -14.9,-15.551 -34.26,-20.614 -17.66,-4.609 -34.98,-12.808 -48.96,-15.128 -13.99,-2.348 -43.14,-17.5 -57.12,-21 -13.99,-3.5 -40.09,-14.2 -56.42,-8.379 -16.31,5.839 -4.23,25.839 1.59,36.328 5.83,10.511 22.76,45.062 37.91,47.402 15.15,2.328 23.91,-1.91 33.24,-1.91 9.32,0 43.12,14 57.11,23.32 13.99,9.328 61.8,19.797 87.44,12.828 25.64,-6.988 58.87,-24.98 65.49,-32.32 11.55,-12.84 8.77,-31.16 19.26,-34.668 10.48,-3.48 20.17,-1.801 26,4.039 5.83,5.82 25.64,5.82 25.64,19.809 0,14 -11.64,20.992 -23.3,22.14 -11.66,1.18 -27.98,3.5 -31.49,9.321 -3.49,5.84 -12.81,22.172 -19.82,27.992 -6.99,5.84 -18.65,25.637 -8.15,25.637 10.49,0 34.96,-3.489 41.97,-13.981 6.98,-10.488 20.98,-21 29.15,-19.828 8.16,1.199 12.81,4.672 18.65,7.02 5.82,2.32 17.48,-5.821 24.47,-17.5 6.99,-11.661 5.83,-13.989 10.51,-18.661 4.65,-4.66 22.14,-22.14 24.47,-34.98 2.33,-12.809 4.92,-47.438 10.76,-50.93 5.84,-3.48 24.59,-0.41 35.94,1.281 23.32,3.5 38.4,17.04 52.38,24.008 14.01,6.992 21.74,6.352 31.07,14.512 9.32,8.16 18.54,31.148 16.84,43.93"
         style="fill:#ffffff;fill-opacity:1;fill-rule:evenodd;stroke:none"
         id="path104" /><path
         d="m 1098.3,685.43 c -10.49,-17.91 54.85,-54.258 68.98,-54.258 14.14,0 26.64,28.668 25.45,38.066 -1.17,9.434 -24.5,19.121 -34.93,25.141 -17.37,10 -41.59,21.582 -59.5,-8.949 z M 799.336,295.762 c -5.309,-7.653 -36.078,-18.774 -63.773,-27.992 -27.692,-9.231 -69.723,-9.739 -84.723,-5.129 -15.012,4.609 -8.453,13.488 -2.68,23.879 5.719,10.281 34.621,11.55 53.086,17.308 18.461,5.781 33.465,12.692 33.465,24.242 0,11.539 -16.156,23.059 -30.004,32.301 -13.852,9.238 -15.004,18.457 -19.617,28.848 -4.617,10.39 -16.152,12.691 -27.703,17.32 -11.535,4.609 -18.461,8.07 -23.074,17.313 -4.618,9.238 -1.153,16.148 -6.926,21.929 -5.77,5.758 -16.918,22.891 -18.817,34.258 -1.578,9.492 2.66,49.981 -3.109,61.52 -5.77,11.531 -19.609,9.222 -30.008,4.613 -10.387,-4.613 -19.617,-5.762 -28.851,2.308 -9.235,8.079 -20.766,55.391 -28.848,77.321 -8.074,21.929 -30.399,94.609 -29.242,103.871 1.152,9.219 5.941,37.109 11.054,53.687 5.321,17.282 6.645,25.942 17.036,37.461 10.386,11.551 21.929,35.77 24.234,50.77 2.309,15 10.59,22.281 21.922,39.719 9.355,14.402 30.933,14.523 50.555,11.062 19.613,-3.48 40.89,2.649 48.972,8.418 8.074,5.781 -6.66,28.59 36.863,24.231 22.993,-2.301 35.563,-21.11 52.872,-39.59 17.316,-18.45 5.773,-35.758 -1.153,-51.91 -6.922,-16.149 -4.617,-33.469 -2.308,-73.848 2.308,-40.391 -23.879,-40.473 -38.879,-47.371 -15,-6.93 -30.137,-1.891 -34.758,1.57 -4.617,3.449 -9.449,-1.512 -26.762,-2.66 -17.308,-1.152 -13.156,4.918 -14.312,15.289 -1.157,10.391 17.773,36.629 29.316,43.559 11.539,6.929 20.774,2.32 25.391,8.082 4.613,5.769 3.457,39.23 -1.157,50.769 -4.617,11.52 -22.3,12.621 -34.589,5.02 -17.403,-10.801 -39.743,-54.379 -48.969,-64.77 -9.238,-10.371 -30.692,-93.73 -34.156,-105.269 -3.461,-11.551 -10.387,-46.161 5.769,-60 16.164,-13.852 32.317,6.91 27.695,17.3 -4.613,10.387 3.54,18.809 7.008,32.661 3.457,13.847 45.879,11.046 67.926,11.046 31.598,0 49.102,13.641 61.609,17.372 15.801,4.742 33.18,6.339 47.399,9.492 10.195,2.258 24.305,4.258 47.387,15.797 23.086,11.543 44.058,5.043 52.132,1.582 8.079,-3.481 14.219,-31.602 21.207,-39.493 6.848,-7.718 19.696,-2.617 27.77,3.141 8.074,5.781 9.668,28.832 18.957,31.941 14.223,4.739 28.91,-8.519 43.91,-16.621 15.007,-8.07 33.987,-20.769 37.467,-23.07 3.46,-2.309 18.46,5.762 21.91,10.391 3.47,4.609 -8.07,12.679 -16.15,20.781 -8.08,8.07 -11.54,18.461 -17.3,25.367 -5.78,6.942 -18.48,5.781 -28.857,8.094 -10.386,2.297 -1.968,14.758 9.577,20.527 11.54,5.781 23.51,4.621 31.59,0 8.08,-4.609 11.67,-8.621 34.76,-6.289 23.08,2.281 32.69,-10.039 44.23,-15.82 11.54,-5.789 21.17,-1.981 44.22,1.582 20.55,3.156 50.51,-3.281 63.2,-7.891 12.69,-4.633 8.95,-33.48 14.4,-53.972 4.55,-17.129 4.55,-31.34 20.35,-69.258 6.9,-16.539 11.06,-39.512 10.01,-53.512 -0.65,-8.789 -7.26,-31.269 3.01,-40.25 7.43,-6.488 24.89,-16.82 44.93,-23.109 5.51,-1.719 29.6,-11.09 40,-11.09 10.37,0 18.05,-13.442 31.9,-26.141 13.84,-12.687 18.09,-47.648 19.24,-60.328 1.17,-12.691 -12.58,-6.801 -21.81,1.27 -9.23,8.089 -11.45,9 -21.83,20.55 -10.39,11.539 -30.3,23.098 -37.23,23.098 -6.92,0 -52.91,-11.148 -66.75,-7.687 -13.85,3.449 -34.34,19.347 -37.81,23.957 -3.46,4.613 -22.78,6.269 -33.16,12.031 -10.38,5.789 -27.82,24.199 -40.5,46.14 -12.69,21.93 -26.54,61.168 -36.93,69.239 -10.38,8.082 -17.31,11.562 -28.85,6.929 -11.54,-4.609 -23.3,-22.046 -48.53,-12.699 -26.55,9.852 -50.56,-17.379 -61.622,-47.398 -4.008,-10.879 -7.41,-25.172 -47.391,-30 -8.261,-1 -31.839,7.89 -41.074,7.89 -9.23,0 -27.101,-5.582 -36.336,-7.89 -9.23,-2.321 -12.211,10.449 -11.058,17.359 1.152,6.942 -18.614,12.039 -30.02,6.328 -15.797,-7.91 -5.465,-46.047 -3.156,-55.289 2.308,-9.238 -7.008,-27.168 -13.934,-31.801 -6.922,-4.609 -23.082,-4.609 -25.386,1.153 -2.309,5.789 -8.075,28.871 -10.383,36.937 -2.313,8.082 -6.93,26.543 3.461,54.242 10.386,27.692 47.308,31.168 61.164,30.02 13.843,-1.16 26.543,-3.461 26.543,-3.461 0,0 15,13.832 21.922,25.371 6.921,11.539 33.464,21.93 39.238,33.481 5.769,11.519 -2.309,18.449 -19.625,19.609 -17.309,1.148 -46.153,-20.77 -60,-26.551 -13.856,-5.758 -66.938,6.942 -73.863,10.371 -6.922,3.481 0,21.942 -5.77,25.41 -5.77,3.461 -16.156,-2.3 -36.93,-8.082 -20.765,-5.757 -49.625,-27.699 -53.086,-36.929 -3.461,-9.219 -1.191,-32.078 -13.847,-34.61 -11.535,-2.308 -18.016,-15 -18.016,-25.648 0,-9.242 17.621,-12.75 26.856,-17.383 9.226,-4.609 12.253,-32.969 25.277,-45.816 11.023,-10.864 8.949,-21.582 13.199,-34.633 3.59,-11.039 12.16,-8.438 19.617,-11.539 6.676,-2.801 6.555,-9.442 11.543,-18.481 3.563,-6.429 14.34,-9.179 23.571,-13.808 9.234,-4.61 8.746,-17.34 17.972,-27.731 9.235,-10.39 26.543,-6.922 35.774,0 9.23,6.91 10.715,17.559 14.183,25.641 3.461,8.07 17.325,18.769 30.016,26.84 12.695,8.078 27.562,14.289 45.809,22.129 22.121,9.468 42.296,17.808 58.457,18.941 16.16,1.149 50.402,5.859 52.132,-14.199 1.723,-20.082 -23.699,-14.223 -29.8,-23.942 -5.27,-8.441 -6.922,-26.55 -20.77,-33.48 -13.852,-6.93 -23.078,-13.852 -27.699,-25.391 -4.613,-11.539 -19.801,-34.648 -24.414,-40.41 -4.617,-5.777 -16.957,-4.019 -24.051,-5.758 -15.449,-3.73 -36.23,-9.75 -45.461,-13.211 -9.238,-3.468 -22.113,-22.101 -27.246,-29.468"
         style="fill:#ffffff;fill-opacity:1;fill-rule:evenodd;stroke:none"
         id="path106" /><path
         d="m 2269.68,1185.4 c 3.17,-10.49 -10.5,85.27 -10.5,85.27 0,0 -37.93,-19.92 -45.83,11.66 -4.37,17.48 -17.2,85.8 -21.86,99.79 -4.66,13.99 -20.26,42.72 -23.7,55.29 -3.49,12.83 -12.71,47.62 -17.37,61.62 -4.67,13.98 -34.09,84.03 -41.07,102.68 -7.01,18.65 -13.09,42.18 -16,48.96 -4.74,11.06 -35.24,63.26 -2.63,72.11 31.08,8.42 -31.99,76.19 -45.29,78.99 -30,6.32 -100.37,35.32 -125.65,27.43 -9.45,-2.95 -18.06,-20.69 -11.07,-30.02 6.99,-9.32 62.35,-21.35 75.84,-28.44 11.53,-6.06 37.07,-16.09 34.75,-34.75 -1.22,-9.82 -12.09,-25.11 1.9,-34.43 13.98,-9.33 34.9,-9.61 31.59,-39.82 -3.3,-30.13 5.15,-41.54 18.64,-60.03 11.73,-16.09 15.12,-43.3 22.11,-58.45 5.71,-12.35 -35.18,-4.24 -41.07,9.47 -6.98,16.33 -28.25,64.18 -41.07,75.84 -11.05,10.04 -28.28,1.17 -25.94,-10.5 2.33,-11.65 26.32,-61.31 38.47,-76.93 14.32,-18.41 52.39,-32.94 61.71,-51.59 9.34,-18.65 27.76,-42.05 34.77,-53.71 6.97,-11.66 34.41,-37.93 37.91,-86.89 2.32,-32.56 17.45,-65.75 22.11,-77.41 4.67,-11.65 -21.48,-15.85 -30.01,-7.9 -13.96,13.02 -22.76,28.05 -23.91,49.01 -1.37,25.24 -16.24,87.87 -39.17,120.78 -26.83,38.48 -40.09,52.92 -51.75,62.25 -11.66,9.32 -47.13,42.41 -58.95,57.58 -13.48,17.32 -34.08,51.46 -41.07,74.78 -7,23.32 -31.12,17.51 -34.75,-3.16 -3.5,-19.82 -3.54,-37.09 22.11,-67.4 25.64,-30.31 34.55,-53.64 55.53,-58.31 20.99,-4.66 32.63,0 48.96,-27.98 16.33,-27.98 57.46,-98.02 59.81,-114.34 2.32,-16.32 -40.98,-12.35 -47.4,9.47 -5.62,19.11 -23.55,65.76 -30.54,77.41 -6.99,11.66 -12.34,26.18 -26.33,16.85 -13.99,-9.33 5.29,-36.51 9.48,-47.39 5.27,-13.69 -20.98,-23.47 -32.65,-9.48 -11.66,13.99 -19.18,42.72 -26.33,55.82 -6.32,11.59 -21.86,27.04 -29.61,23.32 -15.68,-7.52 -5.59,-34.16 -0.93,-52.81 4.67,-18.66 -10.36,-27.04 -23.55,-17.15 -18.66,13.99 -15.16,48.98 -26.82,65.3 -11.65,16.32 -30.3,25.65 -32.65,41.96 -2.32,16.33 0.78,38.7 9.34,46.64 16.33,15.16 9.31,29.14 7,39.63 -2.09,9.38 -8.33,18.09 -9.14,31.1 -1.18,18.66 11.45,19.03 16.12,28.36 4.67,9.33 3.56,25.35 0.72,34.83 -3.16,10.53 -13.39,24.82 5.28,29.49 18.64,4.66 26.24,1.5 37.91,-3.16 11.64,-4.66 40.04,-21.53 49.36,-21.53 9.33,0 43.1,-0.76 37.32,27.32 -1.7,8.23 -25.67,22.81 -34.99,18.16 -9.33,-4.67 -27.55,-5.67 -38,2.37 -13.69,10.54 -51.78,47.75 -54.09,52.42 -2.34,4.65 17.48,47.79 36.14,54.79 18.64,6.99 44.14,12.11 37.15,28.43 -6.99,16.32 -34.36,20.02 -41.35,31.67 -6.99,11.66 -26.33,30.99 -40.32,21.67 -13.98,-9.33 -30.09,-11.82 -39.42,-14.16 -9.32,-2.32 -25.65,-16.31 -30.32,-34.97 -4.66,-18.65 -44.72,-92.45 -46.63,-116.57 -0.75,-9.59 -30.31,-32.65 -25.64,-44.31 4.66,-11.65 13.99,-6.99 23.31,-9.32 9.32,-2.33 4.67,-20.99 -6.99,-34.98 -11.66,-13.98 -12.99,-30.73 -16.32,-37.3 -5.64,-11.1 -26.24,-7.25 -29.66,-18.39 -6.68,-21.72 -18.33,-33.34 -33,-42.17 -18.66,2.33 -38.02,9.5 -23.61,23.26 15.87,15.14 11.9,28.38 20.6,38.84 7.9,9.47 16.7,19.44 14.37,28.76 -2.33,9.33 -20.99,20.99 -11.66,30.32 9.33,9.33 25.66,34.97 32.66,55.95 6.98,20.99 44.29,107.26 51.28,125.91 7,18.66 7,37.31 16.31,48.97 9.34,11.65 53.05,76.82 81.39,81.82 15.22,2.69 45.04,-0.37 52.74,-1.4 l 18.76,-1.1 -58.18,52.5 -21.41,8.61 -26.18,-12.24 c 0,0 -75.73,-39.69 -89.61,-56.82 -10.85,-13.38 -25.67,-82.16 -30.81,-89.86 -5.13,-7.7 -9.96,-20.29 -9.96,-33.12 0,-12.84 2.26,-20.79 -10.58,-54.17 -12.83,-33.38 -23.1,-51.36 -28.23,-77.03 -5.14,-25.67 10.27,-41.08 -2.58,-64.18 -12.83,-23.11 -25.66,-37.24 -28.24,-50.07 -2.56,-12.84 -15.1,-29.28 -20.23,-42.11 -5.14,-12.84 -41.09,-25.67 -33.38,-2.57 7.7,23.11 29.15,92.31 44.55,171.9 15.41,79.59 16.39,120.79 43.34,201.66 25.41,76.26 122.54,132.18 122.54,132.18 l 24.36,14.76 -128.58,64.74 -158.32,63.32 -193.34,33.34 -201.66,6.66 -220.004,-31.66 -210.836,-84.16 -107.5,-75 c 0,0 35.492,-45.64 43.191,-43.07 7.707,2.56 17.863,31.01 27.949,29.05 19.446,-3.78 26.356,-38.34 28.926,-51.17 2.567,-12.84 20.672,-25.65 27.555,-34.85 11.558,-15.4 38.515,-116.81 43.648,-142.49 5.133,-25.67 33.145,-221.34 46.215,-238.77 23.106,-30.81 47.531,-30.41 32.09,17.97 -19.25,60.34 -25.492,188.62 -15.223,232.26 10.27,43.65 -7.109,125.19 -17.383,140.59 -10.265,15.42 -2.968,40.69 4.743,45.83 7.699,5.13 37.515,-14.22 42.648,-34.76 5.145,-20.54 9.707,-139.09 14.742,-157.98 5.137,-19.26 18.504,-27.54 23.172,-41.07 5.777,-16.73 -0.062,-33.39 7.645,-48.79 7.699,-15.41 38.898,-67.49 52.39,-82.33 15.801,-17.38 33.176,-23.7 37.465,-10.1 4.594,14.56 -51.348,69.32 -64.183,136.07 -8.176,42.52 -26.957,75.75 -26.957,102.71 -5.633,14.6 -5.137,26.17 -7.934,34.09 -3.426,9.68 0.336,76.22 -7.375,91.63 -7.695,15.4 -61.844,57.74 -72.973,52.96 -26.957,-11.55 -60.351,18.04 -73.418,29.18 -8.961,7.64 -40.269,23.86 -40.269,23.86 0,0 73.515,26.74 91.672,35 16.515,7.53 47.074,25.92 47.074,25.92 0,0 -22.418,-33.42 -4.742,-63.19 13.125,-22.1 21.75,-56.15 38.433,-24.06 23.985,46.12 11.953,119.62 44.446,131.07 14.906,5.26 79.586,-11.56 94.988,-24.39 6.777,-5.65 33.379,-44.94 50.065,-47.5 22.88,-3.52 52.03,-7.05 69.82,-9.11 31.74,-3.69 55.43,-36.72 62.9,-57.78 20.53,-57.76 -24.16,-130.94 -24.16,-130.94 0,0 -9.45,-21.73 -6.32,-61.62 3.07,-39.15 -1.62,-64.18 16.36,-64.18 17.97,0 17.97,77.03 30.8,105.27 12.84,28.24 16.24,53.91 19.19,77.39 3.14,25.28 -0.6,111.97 -3.17,124.8 -2.57,12.85 -21.15,41.71 -54.53,46.85 -33.37,5.14 -87.28,25.68 -74.45,46.22 12.84,20.54 97.56,10.27 110.39,7.7 12.84,-2.57 42.11,-9.75 48.61,-45.47 6.31,-34.75 2.56,-117.88 1.57,-132.7 -1.57,-23.69 23.3,4.3 30.01,-1.58 12.65,-11.06 -15.39,-60.61 -20.52,-104.27 -5.15,-43.64 -23.73,-83.13 -8.32,-85.7 15.41,-2.57 41.08,69.32 66.75,130.95 25.68,61.61 21.41,55.48 21.41,63.18 0,7.71 -7.5,32.39 7.91,42.66 15.39,10.27 66.35,14.22 96.37,17.37 21.98,2.32 34.42,13.8 31.59,23.7 -2.84,9.9 -43.68,15.23 -53.71,14.22 -15.8,-1.58 -48.33,-9.47 -56.23,-1.58 -5.44,5.45 1.04,65.37 1.04,65.37 0,0 86.12,-15.35 116.66,-21.67 17.71,-3.67 115.85,-46.39 146.67,-56.66 30.81,-10.28 105.37,-43.86 105.37,-43.86 0,0 -28.86,6.58 -45.61,-8.07 -26.67,-23.34 -53.28,-23.34 -78.33,-23.34 -26.67,0 -74.9,13.4 -100.58,-43.08 -25.67,-56.49 -47.5,-142.5 -52.63,-196.42 -5.14,-53.91 -30.37,-107.48 -17.97,-111.68 16.18,-5.48 37.85,37.86 47.03,74.46 6.56,26.14 18.87,57.31 25.82,70.06 7.69,14.12 33.33,36.7 33.33,3.34 0,-33.39 -19.6,-63.93 -35,-105 -15.41,-41.09 -17.41,-62.05 -33.96,-76.24 -26.95,-23.11 -35.77,-46.24 -15.39,-43.64 15.79,2 39.48,-1.16 30,-15.38 -11.48,-17.22 -30,-25.71 -19.73,-35.97 10.26,-10.27 38.89,-5.63 41.84,12.28 2.95,17.9 1.8,51.9 12.07,62.17 10.27,10.27 22.95,-3.27 17.97,-20.54 -7.92,-27.41 20.52,-14.77 11.04,-46.37 -3.69,-12.29 -22.6,-35.79 -20.02,-43.49 2.56,-7.7 29.52,-24.39 -30.81,-30.81 -17.88,-1.9 -96.65,24.41 -118.2,36.38 -28.43,15.81 -52.03,42.38 -74.25,50.56 -24.39,8.98 -74.68,23.69 -82.15,26.85 -14.98,6.35 -24.51,19.72 -24.51,29.98 0,10.28 -25.67,38.52 -43.64,66.76 -17.98,28.24 -43.65,61.62 -35.94,123.24 7.7,61.62 7.7,164.32 -15.41,195.13 -23.1,30.81 -93.713,77.02 -107.83,102.7 -14.114,25.65 -52.02,44.01 -75.117,44.01 -16.243,0 -5.235,-102.6 -5.758,-131.31 -0.496,-26.83 11.496,-45.35 20.05,-49.94 8.543,-4.59 22.493,-29.68 21.184,-51.98 -1.582,-26.85 -26.434,-15.81 -20.695,-52.12 3.844,-24.39 16.687,-17.98 26.957,-19.26 9.187,-1.15 13.629,-40.96 7.703,-46.22 -6.922,-6.14 -15.41,-11.55 -12.84,-24.38 2.566,-12.85 7.703,-51.35 23.109,-51.35 15.407,0 23.106,23.1 23.106,35.94 0,12.84 5.137,146.35 10.266,169.45 5.132,23.11 -10.266,47.5 -23.102,65.48 -12.84,17.97 -49.117,39.95 -43.984,63.06 5.136,23.1 11.539,47.53 18.961,44.24 14.21,-6.32 12.234,-33.38 17.375,-41.08 5.132,-7.7 86.865,-66.06 103.925,-89.33 14.12,-19.26 14.55,-111.69 14.12,-127.09 -0.49,-17.86 -22.85,-30.69 -25.41,-16.57 -4.81,26.38 9.95,66.09 -15.67,67.91 -17.97,1.29 -23.11,-25.67 -20.54,-66.75 2.57,-41.08 11.56,-128.37 21.83,-136.07 10.27,-7.71 23.11,-11.56 28.23,-26.96 5.14,-15.4 13.06,-37.88 32.1,-42.37 21.82,-5.14 41.08,-11.55 26.96,-19.25 -22.19,-12.11 -53.93,-25.6 -69.32,-26.96 -43.647,-3.85 -76.35,-35.02 -97.807,-50.51 -28.438,-20.55 -48.969,-63.2 -61.61,-93.22 -2.223,-5.28 -7.305,-37.02 -25.277,-53.71 -21.285,-19.76 -49.602,-33.21 -63.196,-39.49 -16.683,-7.7 -31.968,-28.81 -6.289,-23.67 25.672,5.14 75.739,32.1 80.875,2.57 4.657,-26.8 -42.363,-26.96 -59.058,-29.53 -16.043,-2.47 -50.063,-23.11 -33.367,-39.8 11.8,-11.8 45.672,20.44 69.312,19.26 25.68,-1.28 57.777,-16.69 80.883,-19.26 23.109,-2.56 69.883,-5.74 88.584,0 16.68,5.14 84.71,51.36 119.37,48.79 25.73,-1.91 53.85,-23.58 77.01,-34.66 29.54,-14.13 60.94,-33.99 127.7,-32.71 67.19,1.3 112.07,27.75 118.48,11.06 6.19,-16.07 -8.19,-19.65 -9.48,-36.33 -1.25,-16.19 2.96,-30.21 -4.74,-37.92 -9.78,-9.77 -34.94,1.78 -42.66,9.49 -7.69,7.69 -17.27,19.65 -27.54,19.65 -10.27,0 -44.92,-2.56 -42.36,-10.27 2.57,-7.7 12.83,-12.84 35.94,-12.84 17.97,0 51.36,-42.36 61.63,-47.5 10.26,-5.14 38.5,-25.69 33.37,-35.98 -5.14,-10.26 -11.56,-10.26 -20.54,-6.4 -11.8,5.06 -13.43,18.45 -26.28,15.9 -12.83,-2.58 -25.08,-23.59 -40.47,-28.75 -17.98,-6.02 -53.38,-8.83 -71.89,-2.56 -24.02,8.13 -42.43,18.84 -55.21,34.67 -15.16,18.76 -26.95,44.96 -44.93,73.2 -17.97,28.24 -43.64,60.33 -59.04,57.76 -15.4,-2.57 -20.54,-35.95 -17.97,-65.48 2.75,-31.63 17.97,-51.36 12.83,-64.22 -5.13,-12.83 -24.78,-31.47 -25.66,-52.63 -1.29,-30.81 19.58,-17.11 19.58,-29.94 0,-12.85 -3.42,-33.12 -13.69,-30.55 -10.28,2.56 -30.56,5.96 -32.86,-10.14 -2.56,-17.96 7.99,-13.84 21.83,-16.68 13.12,-2.67 12.68,-22.35 15.23,-30.06 2.57,-7.69 4.81,-17.301 16.37,-22.43 19.2,-8.539 22.35,11.09 42.6,7.711 19.45,-3.27 22.4,-7.789 34.76,-11.59 16.68,-5.133 40.15,0.731 45.28,8.418 5.14,7.711 1.08,28.721 -6.62,38.991 -7.71,10.25 -13.95,31.25 -1.28,33.36 15.4,2.57 24.3,-17.27 26.86,-24.96 2.57,-7.7 12.65,-23.69 22.12,-34.75 8.35,-9.75 17.84,-12.239 29.32,-23.731 11.55,-11.539 14.13,-20.527 16.69,-29.508 3.53,-12.351 32.1,-16.703 39.8,-26.972 7.7,-10.258 7.7,-30.797 20.53,-48.77 12.84,-17.969 26.97,-29.527 14.13,-44.937 -12.84,-15.41 -47.5,25.679 -71.89,51.34 -21.28,22.418 -51.35,57.777 -69.32,57.777 -17.98,0 -17.98,-19.258 -10.27,-55.199 7.7,-35.961 11.55,-56.5 16.69,-59.059 5.13,-2.562 13.92,1.551 19.06,-1.031 5.14,-2.559 23.3,-37.469 46.4,-52.86 23.11,-15.41 48.97,-27.5 72.08,-19.789 23.1,7.7 15.22,27.481 20.36,32.618 5.12,5.14 33.38,15.41 46.21,15.41 12.84,0 15.58,40.59 15.58,48.301 0,7.699 -10.47,19.75 -7.9,30.019 2.57,10.281 15.8,21.742 15.8,26.859 0,5.141 2.03,34.551 9.48,53.711 8.98,23.129 23.52,63.181 18.38,99.101 -2.91,20.51 -2.56,39.81 5.14,65.49 7.71,25.68 11.78,36.31 7.71,59.06 -4.38,24.42 -8.6,36.6 -8.6,49.69 0,11.59 -17.89,28.44 -14.73,50.56 1.45,10.16 11.86,38.81 12.63,58.98 1.59,41.07 -2.02,55.53 -9.47,72.67 -10.54,24.22 -27.65,48.4 -36.34,51.61 -24.39,8.97 -17.95,22.05 -28.22,29.75 -6.5,4.88 -16.69,20.55 -3.85,23.11 12.83,2.57 21.82,-2.56 39.8,3.85 19.33,6.91 17.98,28.25 28.24,28.25 10.26,0 43.02,-7.56 39.86,-15.46 -3.93,-9.83 -11.49,-34.21 26.87,-12.64 11.18,6.3 18,13.98 30.83,6.27 12.84,-7.7 1.28,-20.54 -6.42,-28.24 -7.69,-7.7 -34.65,-15.4 -34.65,-20.55 0,-5.13 -5.15,-17.97 10.27,-17.97 15.4,0 34.66,11.56 39.78,16.69 5.14,5.14 8.68,16.69 19.26,16.69 12.84,0 7.71,-10.26 30.82,-7.7 23.1,2.57 32.08,12.84 42.35,53.92 10.28,41.08 21.64,121.09 26.78,167.31 5.13,46.21 7.96,80.39 9.47,89.52 2.11,12.63 8.68,25.59 13.83,30.72 5.13,5.14 20.53,41.09 30.8,48.79 10.27,7.7 33.38,5.13 23.11,-17.97 -10.27,-23.12 -25.71,-34.16 -27.23,-51.36 -1.37,-15.55 9.26,-38.51 6.7,-51.34 -2.58,-12.84 -28.25,-15.41 -25.68,-35.95 2.57,-20.54 8.98,-73.17 8.98,-86.01 0,-12.84 -24.05,-17.96 -18.91,-35.94 5.12,-17.97 9.93,-29.53 2.23,-44.94 -7.71,-15.4 -20.74,-41.67 -23.3,-51.95 -2.57,-10.27 -6.1,-60 -15.8,-64.24 -16.85,-7.38 -41.08,0 -53.33,-9.61 -10.11,-7.92 -15.41,-25.68 -28.25,-25.68 -12.84,0 -23.11,-7.7 -33.38,-15.4 -10.26,-7.71 -17.97,-32.1 -2.56,-24.4 15.39,7.71 50.06,32.1 62.89,32.1 12.85,0 29.53,0 37.25,2.57 7.69,2.56 33.37,12.83 46.21,23.11 12.83,10.27 18.55,32.18 18.55,37.31 0,5.14 26.34,2.91 26.34,-7.36 0,-10.28 7.73,-44.08 2.59,-54.34 -5.14,-10.28 -23.65,-25.71 -23.65,-25.71 0,0 -36.67,-14.09 -34.1,-26.93 2.55,-12.84 32.09,-6.42 47.49,-1.28 15.4,5.14 39.8,24.39 44.94,19.26 5.12,-5.14 -16.69,-33.38 -9,-59.06 7.72,-25.68 56.49,-30.81 74.46,-23.1 17.98,7.7 20.17,17.46 27.87,20.02 7.7,2.57 34.55,5.14 47.39,0 12.84,-5.14 32.58,-11.04 32.58,-18.75 0,-7.7 -25.69,-14.11 -20.56,-26.95 5.16,-12.84 14.14,-12.84 29.55,-10.28 15.39,2.58 33.37,-2.56 53.91,-7.69 20.55,-5.14 84.62,-23.21 110.94,-32.7 14.7,-5.29 30.54,-27.26 30.54,-63.22 0,-35.96 -1.33,-75.27 -11.58,-75.84 -18.96,-1.05 -20.78,45.91 -33.62,71.58 -13.83,27.67 -46.21,47.5 -51.34,42.39 -5.14,-5.14 -14.13,-14.15 3.85,-34.67 17.97,-20.55 26.95,-30.82 26.95,-46.23 0,-15.41 2.11,-27.32 4.67,-34.12 3.16,-8.42 18.57,-22.78 15.87,-33.91 -3.76,-15.59 -39.31,-11.93 -49.58,-2.95 -7.96,6.97 -5.63,76.11 -13.32,88.96 -7.71,12.84 -32.09,61.63 -52.64,71.9 -20.54,10.28 -42.36,0 -34.65,-23.13 7.7,-23.1 12.83,-53.91 25.67,-61.62 12.84,-7.69 25.44,-25.56 25.44,-25.56 l -2.34,-15.51 c 0,0 0,-35.94 5.14,-46.21 5.14,-10.28 20.55,-17.97 23.1,-25.679 2.57,-7.703 15.41,-46.222 28.25,-64.179 12.84,-17.992 7.93,-25.364 25.89,-25.364 17.97,0 23.4,14.301 28.54,32.274 5.14,17.988 59.93,14.078 59.93,14.078 l 17.81,182.03 -8.08,53.62"
         style="fill:#ffffff;fill-opacity:1;fill-rule:evenodd;stroke:none"
         id="path108" /><path
         d="M 375.934,1925.54 C 177.602,1727.14 55.0234,1453.38 55.0039,1150.7 v 0 C 55.0234,848.051 177.602,574.309 375.934,375.941 v 0 C 574.32,177.609 848.09,55.0313 1150.77,55.0117 v 0 c 302.65,0.0196 576.42,122.5973 774.79,320.9293 v 0 c 198.33,198.368 320.9,472.11 320.92,774.759 v 0 c -0.02,302.68 -122.59,576.44 -320.92,774.84 v 0 c -198.37,198.33 -472.14,320.9 -774.79,320.92 v 0 C 848.09,2246.44 574.32,2123.87 375.934,1925.54 Z M 0,1150.7 c 0.0195313,635.59 515.188,1150.75 1150.77,1150.77 v 0 c 635.54,-0.02 1150.68,-515.18 1150.7,-1150.77 v 0 C 2301.45,515.191 1786.31,0.0195313 1150.77,0 V 0 C 515.188,0.0195313 0.0195313,515.191 0,1150.7 v 0"
         style="fill:#ffffff;fill-opacity:1;fill-rule:nonzero;stroke:none"
         id="path110" /></g></g></svg>
